<?xml version="1.0" standalone="no"?>
<!DOCTYPE svg PUBLIC "-//W3C//DTD SVG 20010904//EN"
 "http://www.w3.org/TR/2001/REC-SVG-20010904/DTD/svg10.dtd">
<svg version="1.0" xmlns="http://www.w3.org/2000/svg"
 width="660.000000pt" height="660.000000pt" viewBox="0 0 660.000000 660.000000"
 preserveAspectRatio="xMidYMid meet">
<metadata>
Created by potrace 1.11, written by Peter Selinger 2001-2013
</metadata>
<g transform="translate(0.000000,660.000000) scale(0.100000,-0.100000)"
fill="#000000" stroke="none">
<path d="M1873 6309 c-37 -9 -45 -17 -74 -67 -17 -31 -35 -59 -39 -62 -4 -3
-11 -21 -15 -40 -4 -19 -11 -39 -15 -45 -4 -5 -10 -39 -14 -74 -3 -35 -11 -70
-17 -77 -6 -7 -7 -19 -3 -26 5 -7 7 -75 6 -150 -3 -121 -2 -138 13 -138 8 0
20 10 25 23 7 16 8 12 4 -19 -4 -25 1 -65 11 -102 17 -60 34 -81 36 -44 2 32
-3 47 -23 69 -20 21 -20 23 -3 97 9 42 14 80 10 85 -3 6 -6 26 -7 46 -1 23 -6
35 -16 35 -12 0 -12 3 1 24 9 12 19 41 23 62 3 21 13 47 21 56 13 14 13 24 2
66 -10 40 -10 56 0 80 15 35 60 78 99 94 35 14 82 17 82 6 0 -5 5 -6 10 -3 6
3 10 3 10 -2 0 -15 52 -33 68 -24 13 7 12 12 -9 33 -31 31 -26 48 11 48 19 0
28 5 26 15 -3 21 -13 28 -43 30 -16 1 -53 4 -83 8 -30 3 -74 1 -97 -4z"/>
<path d="M2109 6226 c-10 -17 -19 -34 -19 -37 0 -12 74 -29 81 -18 5 8 8 8 13
0 4 -6 16 -11 27 -11 11 0 18 -4 15 -9 -5 -8 61 -33 101 -37 20 -2 21 -1 10
17 -6 10 -18 17 -26 14 -11 -4 -11 -2 -2 8 9 12 5 17 -20 27 -17 8 -40 23 -50
34 -11 11 -40 25 -65 32 -46 11 -46 11 -65 -20z m105 -49 c-20 -12 -37 4 -28
27 6 16 8 16 26 0 17 -16 17 -19 2 -27z"/>
<path d="M5183 6195 c-16 -11 -22 -12 -26 -2 -3 8 -11 6 -27 -8 -16 -14 -24
-16 -27 -7 -4 9 -12 7 -31 -6 -15 -11 -39 -22 -54 -26 -15 -3 -45 -24 -67 -46
-42 -43 -51 -46 -68 -29 -8 8 -17 6 -34 -10 -13 -11 -30 -21 -39 -21 -9 0 -23
-12 -30 -26 -14 -24 -60 -56 -77 -52 -13 2 -63 -14 -63 -21 0 -3 -10 -17 -21
-31 -17 -20 -20 -21 -14 -5 6 19 5 19 -17 -1 -13 -12 -31 -24 -41 -27 -10 -4
-16 -11 -13 -16 3 -5 -1 -14 -9 -21 -13 -11 -14 -10 -9 4 11 29 -8 17 -60 -37
-45 -47 -98 -84 -81 -57 4 6 -6 7 -24 4 -21 -4 -39 -1 -57 11 -14 9 -29 14
-32 10 -13 -13 16 -40 49 -46 56 -10 89 -27 89 -46 0 -10 -17 -43 -37 -73
l-37 -55 48 39 c46 37 48 38 67 20 11 -10 25 -19 32 -20 7 -1 17 -3 22 -4 23
-5 36 1 29 13 -6 9 -4 9 7 1 21 -15 83 -19 74 -4 -4 6 -14 9 -22 6 -8 -3 -12
-2 -9 3 4 5 -14 22 -38 37 l-45 28 30 40 c16 22 29 50 29 63 0 16 10 28 33 39
18 9 48 37 67 64 29 40 50 55 122 89 47 23 95 41 105 41 10 0 24 9 30 20 7 11
26 26 42 35 27 13 192 62 233 69 24 3 80 48 71 57 -18 16 -50 18 -70 4z"/>
<path d="M5382 6197 c-7 -8 -7 -18 -2 -27 7 -12 12 -11 30 5 16 14 17 20 8 27
-18 11 -24 10 -36 -5z"/>
<path d="M2340 5999 c-36 -28 -67 -52 -69 -54 -2 -3 33 -2 78 2 82 6 83 6 107
-23 13 -16 23 -32 24 -36 0 -9 -178 -68 -182 -60 -2 4 -15 17 -29 30 -21 18
-31 21 -51 13 -20 -7 -34 -3 -78 25 l-54 34 -23 -22 c-13 -12 -23 -31 -23 -43
0 -12 -10 -35 -22 -50 -18 -23 -23 -25 -27 -12 -4 10 -11 13 -19 8 -10 -6 -6
-14 13 -33 18 -18 23 -31 18 -44 -6 -17 -5 -17 10 -5 16 12 17 12 10 -5 -6
-16 -5 -17 9 -6 13 10 18 10 24 1 4 -8 3 -9 -4 -5 -7 4 -12 2 -12 -4 0 -6 -8
-9 -17 -6 -13 3 -27 -7 -48 -34 -16 -22 -55 -67 -85 -102 -33 -37 -47 -59 -35
-54 11 4 29 10 40 12 38 9 50 12 55 14 3 1 9 2 14 1 4 -1 14 4 22 10 8 7 17 9
20 6 3 -3 18 -2 33 3 25 7 29 4 40 -24 11 -29 10 -32 -15 -51 -74 -55 -74 -54
-21 -43 27 5 51 7 54 4 4 -3 -4 -18 -18 -32 -20 -21 -21 -27 -9 -34 8 -5 20
-10 27 -10 19 0 1 -119 -20 -132 -8 -5 -6 -8 6 -8 22 0 107 -67 107 -85 0 -7
-9 -24 -21 -39 -19 -24 -26 -26 -102 -26 l-82 -1 -27 -39 c-15 -22 -35 -40
-44 -40 -11 0 -14 -5 -9 -17 4 -10 9 -35 12 -55 3 -21 10 -38 15 -38 4 0 6
-11 2 -25 -4 -15 -1 -32 6 -40 9 -11 9 -15 1 -15 -9 0 -11 -32 -8 -119 3 -71
1 -123 -5 -129 -6 -6 -16 -40 -22 -76 -11 -58 -10 -88 11 -254 24 -188 26
-360 7 -613 -4 -51 -2 -79 5 -83 6 -4 11 -13 11 -19 0 -7 -4 -6 -11 3 -7 11
-9 1 -5 -35 3 -27 6 -77 8 -109 2 -47 7 -65 26 -85 21 -23 23 -33 20 -84 -3
-40 0 -61 9 -69 21 -17 15 -40 -14 -65 -23 -18 -25 -22 -10 -23 25 0 11 -20
-14 -20 -13 0 -18 4 -13 12 4 7 3 8 -4 4 -6 -4 -14 -22 -17 -40 -4 -21 -18
-42 -36 -55 -16 -12 -29 -26 -29 -32 0 -6 -12 -26 -27 -44 -16 -18 -36 -45
-46 -60 -11 -14 -21 -24 -25 -21 -3 3 -11 1 -19 -5 -11 -10 -10 -14 4 -25 16
-12 15 -13 -14 -14 -38 0 -39 -2 -17 -35 25 -38 2 -175 -30 -175 -7 0 -21 -10
-30 -23 l-17 -22 11 23 c10 21 9 22 -42 22 l-53 1 -24 49 c-23 48 -43 62 -56
39 -4 -6 -13 -8 -19 -6 -17 7 -76 -23 -76 -37 0 -7 13 -25 30 -41 43 -42 26
-49 -28 -12 -63 44 -80 44 -125 2 -25 -24 -46 -35 -67 -35 -17 0 -30 -4 -30
-9 0 -12 30 -22 42 -14 7 3 8 1 4 -5 -3 -6 3 -16 14 -22 11 -6 20 -14 20 -18
0 -18 -95 -65 -134 -67 -22 -1 -57 -9 -76 -17 -40 -19 -50 -16 -50 15 0 16 -7
9 -30 -26 -22 -34 -38 -49 -60 -53 -16 -4 -30 -10 -30 -15 0 -5 -8 -9 -18 -9
-13 0 -23 -13 -32 -42 -8 -24 -17 -45 -20 -48 -9 -9 -28 -54 -34 -82 -5 -21
-3 -28 9 -28 8 0 15 -5 15 -11 0 -5 -6 -7 -12 -3 -8 4 -10 3 -5 -2 5 -5 13
-10 18 -10 5 -1 10 -2 12 -4 9 -7 36 -6 31 1 -3 5 -9 7 -14 4 -5 -3 -11 -1
-15 5 -7 11 15 13 40 4 15 -6 14 -8 -1 -25 -9 -10 -21 -16 -27 -12 -6 3 -7 1
-3 -5 8 -13 -10 -52 -24 -52 -18 0 -38 30 -34 52 4 21 4 22 -5 3 -5 -11 -10
-16 -10 -12 -1 5 -12 -4 -25 -20 -22 -26 -46 -127 -37 -158 1 -5 0 -25 -4 -43
-6 -31 -9 -34 -33 -29 -15 3 -36 9 -47 13 -14 5 -8 -5 18 -33 41 -43 43 -69 9
-123 -9 -14 -16 -36 -16 -50 -1 -19 -8 -26 -31 -31 l-30 -6 27 -13 c29 -14 36
-34 17 -45 -7 -5 -5 -13 5 -24 14 -15 14 -23 4 -54 -7 -20 -17 -37 -23 -39 -5
-2 -9 -9 -7 -15 2 -7 -1 -13 -5 -13 -5 0 -7 -18 -5 -39 4 -40 -13 -111 -27
-111 -4 0 -7 -24 -8 -52 -1 -58 -2 -65 -28 -123 -23 -54 -43 -71 -96 -82 -54
-12 -89 6 -89 43 0 26 -14 32 -26 12 -4 -7 -11 -33 -16 -58 -4 -25 -10 -52
-12 -60 -3 -8 -5 -20 -5 -26 -1 -16 -44 -12 -59 6 -8 8 -11 9 -7 2 4 -8 -1
-11 -17 -8 -13 3 -26 5 -29 5 -21 3 -15 49 13 97 28 50 28 54 11 60 -44 14
-64 25 -67 36 -14 54 -32 95 -45 106 -14 11 -13 12 7 7 22 -6 31 8 12 20 -6 4
-9 19 -8 33 2 21 -2 28 -19 30 l-23 3 0 -407 0 -407 23 19 c12 10 25 23 28 27
3 5 9 2 12 -7 4 -10 18 -16 37 -16 23 0 33 -6 40 -25 7 -19 17 -25 40 -25 36
0 77 -19 104 -49 14 -15 19 -34 17 -68 -2 -55 -29 -150 -45 -157 -6 -2 -58
-23 -116 -46 -58 -23 -107 -44 -109 -46 -2 -2 179 -4 402 -4 381 0 407 1 408
18 0 14 2 14 9 -3 6 -13 9 -15 9 -5 1 9 4 11 9 5 10 -14 42 -15 42 -1 0 6 5 4
10 -4 7 -11 10 -11 10 -2 0 7 3 11 8 8 4 -2 23 9 42 25 l35 29 -69 -25 c-45
-17 -73 -22 -80 -16 -7 6 -21 10 -31 9 -11 0 -35 3 -54 7 -28 7 -33 6 -26 -6
7 -12 6 -12 -7 -1 -9 7 -35 16 -59 20 l-44 8 0 61 c0 33 3 59 8 56 4 -2 7 2 7
9 0 7 5 30 11 52 10 38 11 38 49 32 23 -3 54 0 79 9 23 8 41 12 41 10 0 -13
-76 -123 -99 -143 l-26 -23 40 5 c22 3 78 8 125 12 47 3 87 9 90 13 3 4 29 24
59 46 51 37 54 38 48 15 -3 -14 -9 -45 -13 -69 -6 -40 -5 -44 10 -38 38 15 64
16 154 9 l94 -7 -154 -57 -153 -57 461 0 462 -1 27 36 27 36 -141 -8 c-78 -4
-141 -3 -141 2 0 4 19 44 42 89 l42 80 -60 -52 -60 -52 -1 37 c0 22 2 30 6 19
5 -13 14 -2 38 47 l32 65 -37 13 c-37 13 -163 19 -156 7 3 -6 -19 -19 -32 -19
-2 0 -3 30 -1 68 l2 67 -45 5 -45 5 23 17 c26 18 56 68 42 68 -10 0 -37 -26
-42 -41 -2 -7 -15 -4 -36 8 -38 21 -39 26 -9 42 12 6 32 29 44 50 l22 38 -45
14 c-25 8 -45 17 -45 22 1 4 1 23 1 43 0 29 3 35 16 30 14 -5 15 -4 4 9 -16
20 -17 20 -34 -12 l-15 -28 -1 27 c0 14 6 29 13 31 6 3 0 6 -15 6 -30 1 -68
46 -68 81 0 27 -37 59 -70 60 -14 0 -40 -9 -58 -20 -26 -16 -40 -18 -65 -12
-31 8 -32 10 -30 63 3 66 48 240 65 250 33 19 88 64 88 71 0 4 10 8 23 8 15
-1 33 -16 57 -48 19 -26 36 -49 38 -52 2 -2 7 1 11 9 7 10 19 7 59 -13 28 -14
55 -26 59 -26 4 0 -16 24 -44 53 l-52 52 20 24 c17 21 25 23 69 17 61 -8 65
-1 9 14 -38 11 -40 12 -23 25 11 8 31 15 46 15 15 0 33 9 41 20 14 20 75 50
102 50 13 0 14 -4 4 -22 -7 -13 -23 -36 -35 -51 -13 -16 -24 -34 -23 -40 0 -8
2 -8 6 1 8 20 58 41 81 35 14 -3 22 -13 22 -28 0 -14 9 -26 25 -33 23 -11 35
-32 18 -32 -5 -1 -21 -12 -38 -25 l-29 -24 43 2 c63 3 76 -21 35 -65 -17 -18
-34 -41 -37 -50 -3 -9 -16 -18 -28 -20 -16 -2 -31 -20 -50 -56 l-27 -53 26
-10 c15 -6 40 -13 56 -16 l29 -6 -34 -18 -34 -17 40 -4 40 -3 0 -65 0 -65 50
-7 c28 -4 71 -10 97 -12 27 -3 69 -14 95 -26 l46 -20 -29 -31 c-23 -25 -36
-30 -66 -27 -20 1 -40 -1 -44 -4 -3 -4 10 -27 30 -51 20 -24 36 -49 36 -55 0
-13 -46 -27 -74 -23 -11 2 -16 -2 -11 -8 3 -7 16 -10 28 -9 12 1 39 -2 60 -6
30 -7 42 -5 57 9 34 31 32 10 -5 -44 -19 -28 -31 -51 -26 -51 20 0 67 22 87
41 12 12 25 16 28 11 4 -6 20 -5 43 3 32 11 40 11 52 0 12 -12 11 -20 -12 -54
l-27 -40 26 9 c35 14 41 12 18 -5 -18 -13 -16 -14 24 -15 23 0 42 -3 42 -6 0
-11 -44 -69 -62 -82 -33 -24 -49 -45 -41 -52 9 -8 174 -50 200 -50 10 0 42
-18 71 -39 l52 -38 -167 -30 -168 -31 462 -1 462 -1 233 60 232 61 146 -61
c127 -54 152 -61 199 -58 l54 3 15 44 c14 43 14 43 -14 67 -16 13 -35 21 -42
19 -7 -3 -10 -1 -7 4 3 5 1 12 -4 16 -12 7 -181 -16 -176 -24 3 -5 -109 -4
-153 1 -9 1 -11 15 -6 52 3 28 7 57 10 64 7 22 -14 3 -47 -43 -36 -50 -53 -54
-89 -22 -43 37 -52 54 -41 74 5 10 12 25 14 34 3 10 27 21 66 29 l60 12 -42
35 c-23 19 -46 39 -51 44 -5 5 2 25 17 48 15 22 27 47 27 56 0 8 4 15 9 15 17
0 171 -63 171 -70 0 -4 -9 -33 -20 -65 -11 -32 -20 -60 -20 -62 0 -1 10 7 22
19 13 13 22 26 21 30 -2 4 3 5 10 3 20 -8 37 10 52 51 13 38 13 39 -13 45 -27
7 -27 7 -4 14 l23 8 -24 26 c-17 19 -24 35 -22 59 3 31 2 32 -14 18 -16 -15
-23 -14 -79 6 -56 21 -61 25 -55 48 9 40 17 42 72 20 66 -25 71 -25 71 4 0 22
-6 24 -67 33 l-68 9 60 29 c73 34 67 29 69 59 0 14 4 26 7 26 4 0 9 25 11 55
4 44 11 62 33 85 16 17 23 30 16 30 -6 0 0 12 14 28 14 15 28 35 31 44 2 9 19
32 37 52 25 27 38 34 56 29 21 -5 22 -4 11 14 -8 12 -9 25 -4 35 8 13 13 13
42 1 28 -11 32 -16 22 -28 -16 -20 -5 -19 26 2 l25 16 -45 29 c-25 15 -46 34
-46 41 0 16 45 58 82 76 14 8 40 32 56 55 17 22 45 56 64 73 107 104 128 123
134 123 5 0 21 -12 37 -27 l29 -28 -21 43 c-18 36 -19 43 -7 48 8 3 18 20 21
37 4 19 28 53 58 84 l51 53 40 -38 39 -37 -21 36 c-12 20 -22 39 -22 43 0 12
23 6 42 -11 20 -18 25 -4 6 15 -19 19 -3 24 48 16 43 -6 46 -8 29 -20 -10 -8
-15 -14 -11 -14 4 0 -11 -18 -33 -40 -34 -34 -38 -42 -23 -46 101 -34 131 -50
130 -69 -1 -11 7 -46 17 -77 l18 -57 -29 -38 -29 -38 47 40 c29 25 43 44 37
50 -5 5 -9 24 -9 42 0 18 -3 33 -7 33 -5 0 -9 13 -10 30 -2 26 2 30 32 36 36
6 39 24 5 24 -10 0 -21 4 -24 8 -6 10 16 92 38 144 15 35 18 37 49 31 75 -14
107 -43 48 -43 -39 0 -48 -16 -13 -23 34 -7 38 -4 62 43 15 29 20 59 20 115 0
59 3 75 14 75 22 0 85 40 97 61 7 15 21 19 59 19 52 0 60 -8 35 -34 -21 -20
-19 -23 16 -31 36 -8 68 12 33 21 -33 9 -46 82 -23 133 9 22 15 42 11 46 -3 3
-7 24 -8 46 -2 43 -18 69 -41 69 -8 0 -12 4 -8 10 3 5 -17 12 -45 16 -35 5
-54 13 -61 25 -5 11 -20 19 -33 19 -22 0 -24 5 -28 68 -4 47 -1 72 8 83 10 10
12 31 7 67 l-6 52 42 0 c22 0 41 3 41 8 0 4 -18 6 -40 4 -50 -5 -51 4 -2 26
34 15 35 16 12 19 -51 7 -71 14 -65 23 3 6 -2 10 -12 10 -15 0 -16 2 -3 10 12
8 11 10 -7 10 -12 0 -24 4 -28 9 -3 6 3 8 14 6 21 -4 56 28 47 43 -3 5 -18 9
-34 10 -21 0 -33 -6 -42 -23 -7 -13 -23 -26 -36 -29 -13 -4 -24 -11 -24 -16 0
-12 22 -9 32 5 5 6 8 5 8 -2 0 -7 -1 -15 -2 -16 -2 -2 3 -11 9 -19 9 -11 10
-30 3 -74 -6 -32 -10 -75 -10 -95 0 -22 -8 -47 -21 -63 -11 -14 -16 -26 -9
-26 6 0 5 -11 -5 -31 -9 -17 -17 -40 -19 -52 -1 -12 -8 -47 -15 -77 -11 -45
-20 -60 -50 -82 -20 -14 -48 -50 -64 -79 -39 -77 -49 -87 -88 -92 l-34 -4 33
-1 c17 -1 32 -5 32 -10 0 -13 -33 -55 -73 -95 -21 -20 -36 -37 -33 -37 10 0
-21 -52 -47 -81 -13 -14 -45 -38 -70 -53 -34 -20 -52 -40 -66 -70 -10 -24 -32
-53 -49 -64 -16 -12 -44 -43 -61 -69 -17 -25 -31 -42 -31 -36 0 6 -11 11 -25
11 -22 0 -43 -28 -37 -50 1 -5 -3 -8 -8 -8 -6 0 -10 -10 -10 -22 -1 -26 -22
-58 -38 -58 -24 0 -62 -24 -68 -43 -4 -13 -9 -16 -13 -8 -8 12 -91 -73 -91
-93 -1 -19 -65 -86 -83 -86 -9 0 -17 -4 -17 -9 0 -5 -14 -12 -31 -16 -23 -5
-35 -16 -45 -41 -9 -22 -21 -34 -34 -34 -10 0 -22 -5 -25 -10 -4 -6 -10 -8
-14 -6 -4 3 -25 -13 -46 -34 l-39 -40 52 0 52 0 0 -51 c0 -46 -20 -90 -60
-129 -3 -3 -6 -14 -8 -24 -2 -11 -10 -29 -17 -40 -7 -12 -18 -57 -24 -100 -9
-63 -22 -100 -61 -175 -45 -88 -51 -96 -76 -94 -15 1 -35 -3 -43 -10 -12 -9
-13 -9 -7 1 5 8 0 12 -16 13 -72 4 -83 3 -83 -8 0 -6 -3 -15 -7 -19 -4 -3 -6
2 -3 14 3 17 -3 21 -53 27 -49 6 -128 45 -91 45 9 0 6 8 -9 23 -24 24 -9 22
-277 27 -129 2 -187 8 -181 19 2 3 -12 6 -31 7 -19 0 -38 5 -41 10 -4 5 -20
10 -36 11 -52 4 -48 18 24 79 38 32 68 64 65 71 -2 7 2 10 9 7 8 -3 20 3 27
13 8 10 21 19 29 21 8 2 26 15 41 30 14 15 32 28 40 30 7 2 25 16 40 32 15 15
30 25 34 22 3 -4 4 6 1 21 -3 16 -1 25 5 22 5 -4 7 -10 4 -15 -3 -5 -1 -11 5
-15 5 -3 10 1 10 9 0 8 5 18 12 22 7 5 9 2 4 -7 -4 -8 2 -3 14 11 12 14 25 24
29 24 3 -1 14 4 23 11 16 10 -4 22 -145 85 -89 40 -166 77 -171 81 -11 10 43
34 132 60 34 10 65 18 67 18 3 1 6 1 8 2 1 1 19 3 40 4 22 2 45 11 54 22 8 10
12 13 9 6 -4 -6 -2 -14 4 -18 5 -3 10 -2 10 3 0 6 32 -1 71 -15 70 -24 72 -24
93 -6 11 11 30 25 40 33 18 14 19 13 12 -15 -4 -16 -10 -39 -13 -50 -4 -15 3
-12 31 14 20 19 38 33 40 30 3 -2 -4 -23 -14 -47 l-19 -42 25 0 c20 0 29 9 45
43 l20 42 -4 -42 c-3 -26 -1 -43 5 -43 6 0 42 11 80 25 38 14 73 25 78 25 4 0
16 -20 27 -45 22 -54 35 -59 21 -9 -11 40 -4 56 15 31 6 -8 28 -20 47 -24 33
-9 37 -7 60 26 45 62 45 60 -7 83 -26 11 -54 29 -60 38 -13 18 -57 35 -81 31
-7 -1 -11 3 -10 10 3 10 -87 54 -179 89 -17 6 -33 20 -36 31 -3 10 -14 19 -25
19 -19 0 -45 23 -55 50 -3 9 -6 10 -6 3 -1 -7 -12 -13 -26 -13 -24 0 -25 2
-25 78 l0 77 -29 -45 c-15 -25 -26 -52 -24 -60 4 -12 3 -12 -5 -1 -8 11 -10
11 -15 0 -4 -11 -6 -11 -6 -1 -1 7 -6 10 -11 7 -6 -3 -10 1 -10 10 0 9 -13 22
-29 28 l-30 13 35 43 c18 24 34 46 34 49 0 2 -24 1 -52 -2 -45 -6 -56 -4 -69
12 -9 10 -27 26 -40 35 -21 15 -22 20 -12 47 13 34 11 35 -17 18 -27 -17 -30
-10 -19 45 6 32 5 55 -3 72 -10 23 -13 24 -29 9 -17 -15 -19 -14 -39 17 -11
19 -26 49 -32 66 -8 23 -22 36 -45 44 -37 12 -39 22 -18 93 8 27 15 53 15 57
0 5 -20 6 -44 3 l-45 -7 11 42 10 41 29 -21 c16 -11 32 -27 37 -35 7 -13 15
-14 52 -4 32 9 49 9 71 0 15 -7 32 -9 38 -6 5 4 14 -2 20 -11 9 -16 10 -16 11
-1 0 14 5 15 38 6 20 -5 42 -15 47 -20 7 -8 6 -9 -2 -4 -6 3 -15 1 -18 -5 -4
-5 -12 -8 -19 -6 -6 3 -12 -6 -12 -19 -2 -24 10 -32 21 -14 6 10 56 7 89 -6
18 -7 18 -6 2 19 l-17 26 51 -3 c28 -1 55 -8 59 -14 5 -8 12 3 20 29 10 34 10
47 0 66 -11 21 -9 26 16 53 l29 30 -44 -21 -44 -21 -18 22 c-10 12 -18 27 -18
34 0 7 3 7 8 1 4 -6 19 1 37 18 l30 28 -54 -21 c-29 -11 -56 -18 -59 -15 -3 3
7 19 23 35 35 37 27 50 -13 21 -17 -12 -33 -21 -36 -21 -3 0 2 19 10 42 9 26
11 44 5 46 -17 6 1 33 18 28 9 -3 23 -1 31 5 12 9 11 10 -7 6 -20 -5 -23 -1
-23 29 0 28 -4 35 -25 40 -27 7 -31 14 -15 30 7 7 6 11 -4 11 -9 0 -30 7 -48
15 -18 9 -52 24 -75 34 -42 17 -43 18 -43 66 0 44 -2 49 -19 43 -12 -4 -29 3
-48 19 -24 22 -26 27 -13 36 12 8 11 10 -8 10 -16 0 -27 9 -36 32 -18 41 -14
57 24 113 27 40 29 45 12 45 -10 0 -33 -7 -51 -16 -18 -9 -34 -14 -37 -12 -2
3 3 24 11 48 8 24 14 45 12 46 -2 2 -19 10 -39 18 -27 12 -38 12 -48 3 -10
-10 -11 -7 -5 11 4 13 2 22 -4 22 -6 0 -11 20 -11 45 0 25 -4 45 -10 45 -5 0
-7 7 -4 15 4 9 -9 28 -31 49 -38 36 -91 52 -190 59 l-40 2 42 25 c24 14 43 28
43 33 0 4 -14 10 -31 14 -32 6 -75 55 -101 114 -7 16 -19 29 -27 29 -10 0 -12
9 -7 36 4 19 10 42 13 50 4 11 -3 13 -41 8 -34 -5 -47 -3 -51 7 -4 11 37 144
48 156 2 1 19 -2 37 -7 32 -9 33 -9 17 7 -10 10 -35 18 -64 19 -61 3 -65 5
-28 14 25 6 20 8 -27 9 -31 0 -60 6 -63 11 -4 6 4 27 16 47 13 20 30 64 39 97
10 34 21 61 26 61 13 0 144 69 144 76 0 3 -17 14 -37 25 -35 18 -37 22 -35 61
2 22 -1 44 -7 47 -5 4 6 22 25 42 27 26 39 32 49 24 9 -7 16 -6 25 5 9 11 22
14 46 9 36 -7 44 2 19 20 -8 6 -19 26 -25 44 -9 33 -8 34 35 53 25 11 45 25
45 32 0 7 18 30 39 52 47 49 87 84 77 68 -5 -9 -1 -13 11 -13 31 0 63 12 57
21 -3 5 2 9 10 9 9 0 16 3 15 8 -1 4 2 17 6 30 12 35 44 27 116 -29 20 -16 40
-29 44 -29 3 0 5 21 4 47 l-3 48 37 6 37 6 -5 -64 c-3 -34 -3 -63 0 -63 4 0
17 25 30 55 14 30 27 55 30 55 14 0 63 -30 76 -46 12 -15 12 -16 0 -9 -10 5
-12 4 -7 -3 4 -7 13 -12 19 -12 7 0 23 -9 37 -20 14 -11 51 -25 83 -32 31 -7
57 -15 57 -19 0 -4 -9 -29 -20 -55 -11 -26 -19 -49 -17 -51 2 -2 17 15 32 37
15 22 29 40 32 40 2 0 -10 -27 -27 -60 -16 -33 -30 -64 -30 -70 0 -5 23 -10
53 -10 l53 0 14 83 c14 74 17 82 39 85 16 3 35 -8 62 -34 44 -43 47 -62 24
-158 -25 -105 -85 -153 -191 -155 -53 -1 -58 -8 -31 -41 19 -22 27 -26 52 -19
17 4 47 10 69 13 l38 5 -7 -37 c-3 -20 -13 -65 -21 -99 -13 -51 -13 -72 -4
-110 7 -27 12 -59 12 -72 0 -13 3 -20 6 -14 14 20 40 21 71 2 17 -10 35 -19
40 -19 5 0 12 25 16 56 7 61 1 57 76 39 41 -10 53 14 34 63 -9 22 -15 46 -14
53 2 8 -1 24 -5 37 -5 15 -2 31 8 47 14 22 24 25 74 25 l59 0 -3 -32 c-2 -18
-1 -26 2 -17 3 10 13 19 23 22 19 5 77 95 67 104 -3 4 -18 1 -33 -6 -27 -12
-27 -12 6 22 30 32 37 34 60 25 14 -5 49 -19 77 -29 34 -13 54 -27 57 -40 3
-12 10 -18 16 -14 7 3 8 0 5 -9 -12 -31 6 -35 66 -14 52 17 63 25 75 55 19 46
20 43 -19 43 -44 0 -49 9 -31 54 9 20 13 41 10 46 -3 5 -1 11 4 14 5 4 23 28
39 55 27 42 28 48 11 44 -10 -3 -19 -8 -19 -12 0 -3 -31 -6 -69 -6 -43 0 -67
4 -64 10 3 6 17 25 31 44 33 45 19 53 -87 47 -77 -3 -86 -6 -104 -30 -10 -14
-24 -23 -29 -20 -7 4 -8 2 -4 -4 4 -6 -3 -25 -15 -42 -17 -23 -26 -27 -36 -19
-7 6 -10 16 -6 22 3 5 2 7 -4 4 -5 -3 -27 14 -47 39 -21 25 -36 46 -35 47 34
18 44 26 44 36 0 6 7 16 15 21 19 12 8 13 -24 0 -20 -7 -36 -3 -86 23 -55 29
-60 35 -61 67 -1 19 -1 39 0 44 1 4 -6 31 -16 60 -9 28 -16 56 -14 61 1 6 -3
4 -10 -2 -7 -7 -36 -13 -63 -13 l-51 0 -25 57 c-35 79 -36 87 -2 24 l29 -54
23 62 c12 34 20 64 18 67 -3 2 -30 2 -60 -2 l-55 -6 -14 -76 -14 -75 -45 -13
c-25 -8 -73 -14 -106 -14 l-61 0 -54 58 c-30 31 -63 70 -75 86 l-21 29 -35
-21 c-20 -12 -42 -22 -51 -22 -28 0 -26 -15 5 -64 l31 -47 -36 -37 c-48 -48
-141 -90 -162 -72 -21 18 -19 35 3 19 24 -19 -8 21 -68 84 l-45 48 28 25 c17
14 34 44 43 76 8 29 24 61 36 70 17 15 81 39 113 43 6 0 9 7 7 15 -2 10 0 11
11 2 9 -8 17 -8 24 -1 6 6 10 5 10 -5 0 -8 -4 -13 -9 -10 -4 3 -8 0 -8 -5 0
-14 17 -14 26 0 5 8 10 6 16 -5 8 -14 17 -11 68 24 l59 40 -21 -61 c-20 -61
-20 -77 3 -63 7 4 33 7 56 5 30 -2 55 4 80 19 19 11 50 21 69 22 21 1 31 5 27
12 -4 6 2 4 12 -4 17 -14 18 -13 12 4 -6 16 -5 17 8 6 8 -7 15 -9 15 -4 0 4 5
3 12 -4 14 -14 32 -16 24 -3 -3 4 4 17 17 27 22 19 22 19 4 -2 -9 -11 -14 -23
-11 -27 7 -7 52 20 72 43 8 8 11 9 7 3 -7 -15 11 -18 20 -3 3 5 -27 26 -67 46
-40 20 -85 51 -100 68 -25 29 -26 32 -11 55 43 67 53 90 44 95 -6 4 -19 -2
-31 -14 -11 -11 -20 -15 -20 -9 0 8 -5 8 -15 -1 -8 -7 -15 -9 -15 -5 0 4 -12
0 -26 -9 l-25 -17 15 30 c22 42 20 48 -9 21 -14 -13 -25 -18 -25 -12 0 7 5 12
11 12 5 0 7 5 3 12 -4 6 -3 8 4 4 6 -3 13 -2 17 4 4 6 10 8 15 5 10 -6 25 13
17 21 -3 3 -23 0 -46 -7 -32 -9 -46 -9 -70 1 -31 12 -45 38 -15 26 21 -8 200
-9 213 -2 5 3 12 44 16 91 7 83 8 85 42 106 49 30 100 41 107 22 4 -8 3 -20
-1 -25 -4 -8 2 -9 18 -4 13 4 38 11 54 15 17 5 54 30 83 57 49 44 58 49 105
49 51 1 97 17 97 34 0 19 -114 28 -125 10 -4 -6 -13 -8 -20 -5 -7 2 -18 -1
-25 -7 -10 -9 -12 -8 -7 5 3 10 0 19 -9 22 -24 9 -54 7 -54 -4 0 -5 -10 -10
-22 -11 -22 -1 -22 -1 1 -8 14 -4 27 -13 29 -20 3 -9 0 -11 -9 -6 -10 6 -11 5
-4 -4 6 -6 9 -27 7 -47 -4 -36 -5 -36 -44 -31 -22 3 -46 11 -52 18 -8 9 -7 10
4 4 9 -5 7 1 -5 15 -11 13 -14 20 -6 15 11 -6 13 -4 8 9 -4 9 -3 15 2 12 4 -3
13 10 18 29 l11 34 -42 -3 c-22 -2 -46 1 -52 6 -6 4 -37 3 -70 -3 -32 -6 -88
-8 -124 -5 -64 7 -165 -7 -175 -24 -5 -8 70 6 87 16 4 3 -1 -18 -12 -46 -11
-28 -20 -53 -20 -56 0 -3 -4 -3 -9 0 -5 4 -7 -3 -4 -14 4 -14 0 -20 -11 -20
-10 0 -15 -4 -11 -9 3 -5 24 1 48 15 50 28 57 29 57 8 0 -8 -4 -13 -8 -10 -4
2 -8 -6 -8 -18 0 -12 6 -23 13 -23 7 0 9 5 4 11 -4 6 -3 21 4 32 9 18 14 20
26 10 19 -13 17 -40 -6 -62 -15 -15 -20 -15 -58 -1 -40 15 -41 15 -17 -1 14
-9 36 -28 50 -41 l24 -25 -24 -7 c-14 -4 -44 -13 -67 -19 -24 -6 -43 -17 -43
-24 0 -8 -14 -29 -31 -47 -47 -50 -88 -113 -93 -144 -3 -16 -13 -36 -22 -44
-15 -15 -15 -14 -5 5 9 19 7 22 -21 28 -66 13 -78 9 -78 -27 0 -27 -9 -42 -40
-71 -22 -20 -47 -48 -56 -61 -9 -14 -21 -22 -27 -18 -5 3 -7 1 -4 -4 4 -6 -1
-21 -11 -33 l-18 -22 -31 26 c-16 14 -34 22 -38 18 -5 -4 -5 -2 -2 4 4 6 -3
20 -14 30 -16 15 -18 20 -7 29 7 6 33 32 57 57 34 36 44 55 47 86 3 43 38 122
54 122 6 0 10 7 10 16 0 23 70 134 85 134 6 0 38 -9 71 -20 58 -19 59 -19 36
0 -13 11 -36 28 -50 39 l-27 19 34 19 c50 27 71 50 71 78 0 18 7 26 25 31 14
3 25 10 25 15 0 14 -57 11 -72 -3 -7 -7 -36 -23 -65 -34 -42 -18 -53 -19 -57
-8 -3 8 -12 14 -21 14 -8 0 -14 3 -13 8 0 4 -2 15 -7 25 -7 17 -8 17 -29 0
-18 -15 -19 -16 -8 -1 21 27 6 58 -29 58 -16 0 -29 5 -29 10 0 6 5 10 10 10
21 0 9 20 -15 26 -14 4 -24 11 -22 18 5 14 -22 35 -45 36 -11 0 -18 8 -18 20
0 32 -30 23 -100 -31z m195 -217 c-6 -4 -11 -27 -13 -52 -2 -24 -6 -47 -10
-50 -4 -3 -7 -16 -7 -30 0 -23 -4 -25 -47 -28 -27 -2 -48 1 -48 7 0 5 -10 7
-21 4 -17 -5 -20 -2 -16 13 3 10 11 39 18 63 12 40 18 46 73 72 41 20 64 25
71 18 6 -6 6 -12 0 -17z m-505 -121 c0 -10 8 -21 18 -23 19 -5 29 -58 11 -58
-5 0 -7 5 -4 10 3 6 1 10 -5 10 -7 0 -9 7 -6 16 3 8 2 13 -2 10 -5 -3 -16 8
-26 25 -15 25 -15 29 -2 29 9 0 16 -8 16 -19z m813 -421 c9 -8 -110 -23 -123
-15 -5 3 -6 13 -3 23 4 17 10 18 61 9 31 -5 61 -13 65 -17z m322 -3 c1 -7 7
-10 15 -9 8 2 11 0 7 -5 -5 -4 -13 -8 -18 -8 -5 0 -8 -4 -6 -10 1 -5 6 -9 10
-7 5 1 6 -2 2 -8 -5 -8 -11 -7 -21 1 -9 7 -11 16 -5 23 4 6 7 19 5 29 -1 11 1
16 4 12 4 -4 7 -12 7 -18z m70 -36 c3 -5 2 -12 -3 -15 -5 -3 -9 1 -9 9 0 17 3
19 12 6z m-1188 -158 c0 -9 -4 -10 -14 -2 -7 6 -13 12 -13 14 0 1 6 2 13 2 8
0 14 -6 14 -14z m34 0 c13 -16 12 -17 -3 -4 -17 13 -22 21 -14 21 2 0 10 -8
17 -17z m298 -52 l74 -38 -61 -46 c-33 -26 -68 -54 -76 -63 -9 -8 -16 -12 -16
-7 0 4 -4 1 -10 -7 -5 -9 -5 -19 2 -27 7 -9 7 -13 -1 -13 -6 0 -10 -4 -8 -10
1 -5 -22 -32 -51 -59 -62 -57 -101 -68 -173 -50 -52 14 -58 19 -34 39 18 15
65 116 65 139 0 19 32 52 69 71 19 10 25 9 32 -1 7 -12 9 -12 9 0 0 18 79 111
93 111 7 -1 45 -18 86 -39z m447 16 c0 -13 -6 -24 -13 -24 -6 0 -9 5 -5 11 4
6 7 14 8 19 5 26 10 23 10 -6z m-826 -7 c0 -5 -2 -10 -4 -10 -3 0 -8 5 -11 10
-3 6 -1 10 4 10 6 0 11 -4 11 -10z m867 -24 c-1 -6 4 -10 11 -8 17 3 15 -3 -5
-19 -10 -7 -15 -9 -10 -4 4 4 0 16 -8 25 -13 14 -13 17 -1 17 8 0 14 -5 13
-11z m336 -102 c27 -10 0 -61 -47 -89 -24 -14 -45 -25 -48 -25 -2 0 0 27 5 60
10 59 10 60 43 60 18 0 39 -3 47 -6z m-718 -133 c3 -5 2 -12 -3 -15 -5 -3 -9
1 -9 9 0 17 3 19 12 6z m-96 -67 c6 -5 -30 -44 -51 -55 -15 -8 -16 -5 -8 21 5
17 6 30 4 30 -3 0 -2 5 1 10 6 9 42 5 54 -6z m-78 -17 c-8 -8 -14 -7 -23 2
-11 10 -9 11 6 5 15 -6 17 -4 11 6 -6 9 -4 11 4 5 9 -5 10 -10 2 -18z m-41
-12 c4 3 11 -2 14 -10 4 -12 2 -14 -11 -6 -12 6 -20 5 -29 -7 -10 -14 -13 -13
-24 9 -13 23 -12 23 5 9 17 -14 17 -13 10 10 -7 23 -7 23 9 7 10 -9 21 -15 26
-12z m1305 15 c-3 -5 -11 -10 -16 -10 -6 0 -7 5 -4 10 3 6 11 10 16 10 6 0 7
-4 4 -10z m-1378 -27 c1 -24 0 -25 -6 -8 -7 17 -6 35 2 35 2 0 3 -12 4 -27z
m-30 -25 c2 -17 0 -19 -7 -8 -5 8 -6 18 -4 22 8 12 10 10 11 -14z m46 -13 c-3
-9 -8 -14 -10 -11 -3 3 -2 9 2 15 9 16 15 13 8 -4z m65 8 c-10 -2 -18 -9 -18
-15 0 -6 -3 -9 -6 -5 -10 10 6 27 24 26 15 -1 15 -2 0 -6z m-80 -48 c-3 -3 -9
2 -12 12 -6 14 -5 15 5 6 7 -7 10 -15 7 -18z m60 3 c-3 -7 -14 -14 -26 -16
-21 -3 -21 -5 -7 -25 8 -12 15 -30 15 -40 0 -16 -5 -18 -27 -12 -42 11 -92 12
-86 1 11 -17 -61 4 -75 21 -16 22 -3 35 43 39 21 2 44 9 53 16 12 10 14 10 8
1 -11 -19 14 -16 54 6 41 23 53 25 48 9z m-154 -108 c14 -5 26 -15 26 -22 0
-9 -3 -8 -10 2 -6 9 -10 10 -10 3 0 -20 18 -24 29 -6 6 10 11 12 11 6 0 -13
-35 -53 -46 -53 -3 0 -3 7 0 16 3 8 2 13 -2 10 -5 -3 -16 8 -26 25 -18 31 -13
35 28 19z m1526 -24 c0 -2 -8 -10 -17 -17 -16 -13 -17 -12 -4 4 13 16 21 21
21 13z m37 -18 c-3 -8 -6 -5 -6 6 -1 11 2 17 5 13 3 -3 4 -12 1 -19z m-83 3
c3 -5 -2 -15 -12 -22 -15 -12 -16 -12 -5 2 7 9 10 19 6 22 -3 4 -4 7 0 7 3 0
8 -4 11 -9z m56 -6 c-7 -8 -9 -23 -6 -32 4 -10 4 -14 0 -10 -4 4 -13 2 -21 -4
-11 -10 -11 -8 -1 12 20 36 29 49 35 49 3 0 0 -7 -7 -15z m-1567 -82 c-35 -24
-70 -27 -66 -6 1 6 -5 10 -14 9 -24 -2 -27 21 -3 27 13 3 18 1 13 -6 -5 -9 -3
-9 8 -1 19 14 45 11 41 -6 -3 -11 0 -11 12 0 19 15 21 24 4 14 -7 -4 -8 -3 -4
4 5 9 12 9 25 0 17 -11 16 -13 -16 -35z m1505 22 c-3 -3 -9 2 -12 12 -6 14 -5
15 5 6 7 -7 10 -15 7 -18z m-338 -285 c-13 -8 -12 -12 4 -27 15 -14 18 -15 14
-2 -4 11 1 15 18 15 13 0 22 -2 20 -4 -3 -2 -6 -2 -8 0 -3 2 -16 -8 -29 -22
-13 -14 -21 -21 -17 -16 4 5 1 18 -8 27 -17 18 -12 39 9 39 7 0 6 -4 -3 -10z
m-1348 -1278 c37 -22 45 -31 36 -40 -9 -9 -8 -12 5 -12 14 0 16 -4 8 -17 -5
-10 -9 -22 -9 -28 0 -5 -5 -11 -10 -13 -12 -4 -10 16 3 38 7 12 6 13 -7 3 -8
-7 -19 -9 -23 -5 -5 4 -4 0 1 -8 4 -8 9 -20 10 -27 3 -17 -43 -56 -55 -48 -15
9 -3 27 12 19 7 -4 2 4 -11 18 -12 13 -20 28 -17 31 3 4 2 5 -1 3 -3 -2 -6 -8
-6 -13 1 -4 -6 -15 -14 -24 -12 -14 -12 -16 0 -16 8 0 14 3 13 6 -1 3 1 7 6 9
13 4 10 -12 -5 -22 -9 -5 -23 -6 -33 -2 -17 6 -17 8 1 29 l19 22 -26 -22 c-30
-28 -49 -31 -26 -5 10 10 14 22 10 27 -5 4 -2 5 5 1 7 -4 12 -1 12 9 0 20 40
115 49 115 3 0 27 -13 53 -28z m1047 -211 c-1 -12 -2 -12 -6 2 -2 9 -8 15 -12
13 -4 -3 -7 4 -7 15 0 19 1 19 13 3 7 -10 12 -25 12 -33z m-29 -26 c-5 -6 -7
-15 -3 -18 3 -4 1 -7 -5 -7 -15 0 -16 17 -2 25 8 5 7 12 -2 23 -12 15 -11 16
5 3 12 -9 14 -17 7 -26z m-1108 -103 c50 -78 55 -92 32 -99 -11 -3 -35 -24
-54 -48 -39 -48 -60 -55 -160 -55 -65 0 -69 1 -99 35 -25 29 -30 41 -24 63 12
49 44 112 61 121 21 11 83 22 140 26 24 2 46 6 49 9 12 12 18 6 55 -52z m559
-80 c5 -2 7 -8 3 -13 -3 -5 1 -9 9 -9 14 0 57 -52 57 -69 0 -14 -87 -156 -105
-171 -8 -6 -20 -10 -26 -8 -7 2 -27 -12 -45 -31 -39 -40 -40 -38 -17 50 16 63
16 68 0 84 -16 15 -16 19 -3 29 17 13 59 136 60 177 1 15 4 25 9 22 4 -2 7 2
7 9 1 7 10 -5 22 -27 11 -22 25 -42 29 -43z m2512 52 c-3 -8 -12 -13 -19 -10
-8 3 -14 0 -14 -6 0 -6 -3 -8 -7 -5 -8 9 27 48 38 41 4 -2 5 -12 2 -20z m-51
9 c-6 -2 -9 -10 -6 -15 4 -7 2 -8 -5 -4 -13 9 -5 26 12 25 9 0 8 -2 -1 -6z
m-3560 -138 c24 -5 118 -77 118 -91 0 -6 -7 -25 -16 -43 -14 -28 -20 -32 -48
-27 l-31 6 30 -11 c40 -15 39 -13 25 -53 -10 -31 -16 -36 -43 -37 -25 -1 -27
-3 -9 -6 31 -6 36 -22 22 -72 -15 -56 -48 -76 -119 -73 -54 3 -56 2 -57 -23
-1 -14 -9 -40 -17 -58 -24 -51 -31 -81 -18 -73 6 4 25 5 41 1 21 -5 27 -11 23
-22 -4 -10 -2 -14 4 -10 5 4 2 -19 -8 -50 -11 -31 -19 -66 -19 -78 0 -41 -21
-84 -55 -109 -19 -14 -37 -26 -40 -26 -4 0 -4 32 0 72 7 69 9 74 54 115 l46
42 -47 1 c-74 0 -78 4 -62 55 7 25 14 70 15 100 2 40 7 59 19 65 12 6 17 24
18 62 2 41 19 140 27 155 1 2 17 -2 36 -7 l34 -9 -35 28 c-26 22 -32 32 -23
42 5 8 20 45 33 83 25 75 14 70 102 51z m3602 -64 c-3 -3 -10 2 -15 12 -6 10
-15 14 -22 10 -18 -11 -36 -12 -43 -2 -3 5 -10 7 -15 4 -15 -10 -10 1 7 15 12
11 15 11 12 0 -2 -8 5 -14 15 -15 9 0 17 5 16 10 -1 6 -4 9 -8 8 -4 -1 -8 5
-8 13 0 9 12 3 34 -17 18 -18 30 -35 27 -38z m-2404 -18 c-1 -10 -50 -46 -50
-37 0 11 32 44 42 44 4 0 8 -3 8 -7z m2338 -5 c-2 -7 -6 -15 -10 -18 -4 -3 1
-11 11 -17 17 -11 19 -9 15 17 -5 26 -3 28 31 28 40 0 39 1 23 -33 -12 -28
-25 -33 -25 -10 0 8 4 12 9 9 4 -3 8 -3 8 0 0 3 -9 10 -19 16 -18 9 -19 8 -10
-22 5 -18 5 -35 1 -38 -4 -3 -19 -16 -33 -28 l-26 -23 -32 42 c-36 49 -36 52
-15 73 19 19 75 22 72 4z m-3844 -60 c-6 -21 -5 -22 12 -8 18 14 18 14 2 -5
-9 -11 -16 -23 -15 -27 1 -3 -2 -10 -7 -15 -5 -5 -6 -3 -2 5 5 9 3 12 -7 10
-9 -2 -16 2 -17 7 -1 6 -6 15 -11 22 -12 13 -1 22 24 18 9 -2 17 1 17 6 0 5 3
9 6 9 3 0 2 -10 -2 -22z m1530 -35 c-16 -68 -32 -86 -79 -87 -19 -1 -35 -4
-35 -8 0 -5 -4 -8 -9 -8 -10 0 -19 87 -11 100 5 8 124 58 141 60 4 0 0 -25 -7
-57z m-664 -55 c0 -5 -9 -8 -20 -8 -16 0 -20 7 -20 38 l0 37 20 -30 c11 -16
20 -33 20 -37z m-176 0 c-3 -4 6 -23 19 -43 22 -32 25 -33 44 -20 20 14 33 11
33 -7 0 -5 -5 -6 -12 -2 -7 4 -8 3 -4 -5 11 -17 28 -2 21 18 -3 10 1 24 10 31
12 10 15 10 15 -2 0 -28 -22 -78 -31 -72 -5 3 -8 2 -7 -3 2 -4 -1 -8 -7 -8 -5
0 -8 6 -7 15 2 8 2 13 0 10 -33 -44 -33 -44 -19 -35 10 6 12 4 6 -4 -4 -7 -18
-11 -31 -8 -13 2 -24 1 -24 -4 0 -4 -8 -10 -17 -13 -10 -2 -2 -4 18 -3 20 1
43 -4 51 -11 8 -6 19 -8 23 -4 5 4 5 1 0 -6 -5 -10 -10 -11 -18 -3 -6 6 -15
11 -20 11 -4 0 10 -22 32 -48 23 -27 41 -51 41 -54 0 -4 -29 -16 -65 -28 -36
-12 -65 -25 -65 -29 0 -4 -33 -4 -72 0 -76 8 -161 10 -143 4 6 -2 54 -11 108
-21 l99 -17 -5 -61 c-2 -33 -7 -70 -10 -81 -3 -11 -6 -30 -6 -43 -1 -14 -10
-27 -26 -34 -13 -6 -27 -19 -30 -30 -8 -22 -33 -24 -41 -3 -5 11 -22 15 -66
15 -50 0 -184 18 -196 25 -1 2 11 24 27 51 17 27 40 87 52 134 18 69 31 96 70
144 45 56 48 62 46 117 -1 31 1 55 5 53 4 -3 19 14 34 38 l27 42 18 -36 c20
-38 39 -57 39 -38 0 6 6 26 14 44 12 28 19 33 44 32 16 0 28 -4 26 -8z m3143
-104 c-3 -4 5 -15 18 -26 36 -28 31 -41 -7 -22 -18 9 -35 18 -37 20 -5 4 19
34 27 34 3 0 2 -3 -1 -6z m-2988 -25 c36 -13 38 -19 11 -50 l-20 -24 -19 22
c-10 12 -20 20 -23 18 -2 -2 -5 7 -6 20 -2 28 9 31 57 14z m796 -25 c16 -25
16 -27 -12 -56 l-28 -30 39 16 c50 21 55 20 66 -8 16 -42 -1 -77 -45 -92 -22
-7 -51 -14 -65 -14 l-25 0 22 18 c19 14 21 22 15 47 -6 23 -15 31 -36 33 -27
3 -28 6 -22 40 3 20 6 45 6 55 0 29 64 23 85 -9z m1975 -154 c21 -7 19 -8 -17
-9 -24 -1 -43 4 -43 9 0 12 24 12 60 0z m-3882 -28 c15 11 15 11 4 -3 -7 -9
-11 -23 -9 -30 2 -8 2 -11 0 -6 -3 4 -9 5 -14 2 -5 -4 -6 2 -2 11 4 12 3 15
-5 10 -8 -5 -10 -1 -5 10 4 12 8 14 11 6 3 -10 7 -10 20 0z m1249 -72 c-6 -16
-15 -30 -20 -30 -4 0 -6 -4 -2 -10 3 -5 -1 -25 -9 -45 -8 -19 -14 -35 -12 -35
2 0 23 7 46 15 24 8 45 14 47 12 2 -2 -13 -25 -32 -51 -20 -25 -33 -51 -29
-58 4 -7 3 -8 -4 -4 -6 4 -21 2 -32 -4 -12 -6 -35 -8 -52 -5 -28 7 -30 8 -12
18 30 16 30 17 6 36 l-23 17 22 27 21 28 -24 -6 c-19 -5 -29 -1 -41 19 -27 40
-21 54 26 66 34 9 127 36 134 39 1 1 -4 -12 -10 -29z m-907 -217 c0 -4 -5 -22
-12 -40 -11 -30 -15 -33 -55 -33 -42 0 -43 1 -37 28 11 51 12 52 59 52 25 0
45 -3 45 -7z m1054 -75 c-33 -55 -35 -57 -60 -46 -32 15 -30 26 9 43 41 18 60
19 51 3z m-1133 -23 l9 20 -3 -20 c-2 -22 -21 -24 -23 -3 0 7 1 6 4 -2 4 -12
7 -11 13 5z m145 -23 l39 -32 -63 0 -62 0 0 33 c0 28 3 33 24 32 13 -1 41 -16
62 -33z m-262 -57 l44 -55 7 30 c6 28 9 30 55 30 38 0 59 -7 95 -31 31 -21 43
-35 37 -42 -5 -7 -15 -28 -21 -47 -9 -29 -20 -39 -54 -52 l-42 -17 43 0 c23
-1 42 -3 42 -6 0 -4 -7 -19 -15 -35 -9 -17 -13 -30 -11 -30 3 0 0 -12 -5 -27
-9 -26 -77 -83 -99 -83 -6 0 -10 -4 -10 -9 0 -4 -10 -7 -22 -6 -13 1 -35 3
-50 4 -26 1 -28 4 -28 40 0 22 4 43 10 46 5 3 8 23 7 44 -2 37 -2 38 -24 22
-12 -9 -28 -29 -35 -46 -8 -16 -13 -24 -11 -17 3 17 2 17 -73 -27 -63 -37 -69
-38 -90 -24 -22 14 -23 21 -21 98 1 52 6 81 12 77 6 -3 -2 8 -17 24 -15 16
-26 37 -24 46 2 17 54 68 65 65 3 -1 27 13 54 31 46 33 47 33 48 10 1 -22 1
-21 10 4 7 18 19 28 37 31 15 2 30 5 34 6 4 0 27 -24 52 -54z m1249 -4 c5 -5
2 -24 -7 -44 l-15 -36 -50 22 c-28 11 -51 24 -51 28 0 4 15 17 33 28 31 20 70
21 90 2z m107 4 c23 -12 30 -23 30 -44 0 -24 -5 -30 -32 -36 -51 -12 -51 -12
-83 -4 -30 7 -30 7 -3 8 24 1 28 6 34 46 7 50 11 52 54 30z m1550 -99 c0 -4
-6 -3 -14 3 -11 9 -15 9 -18 0 -2 -7 -10 -9 -17 -5 -9 6 -9 11 -1 21 9 11 16
12 31 2 10 -6 19 -16 19 -21z m-1520 -14 c0 -4 -6 -14 -12 -20 -7 -7 -13 -17
-13 -21 0 -4 -14 -20 -32 -35 l-32 -27 6 38 c9 58 20 73 53 73 17 0 30 -4 30
-8z m30 -27 c0 -15 -27 -28 -42 -19 -5 3 -2 14 8 25 18 20 34 17 34 -6z
m-1700 -24 c7 -14 7 -22 0 -26 -6 -4 -10 -3 -9 2 4 21 -2 34 -13 27 -7 -4 -8
-3 -4 4 10 16 14 15 26 -7z m-29 -44 c-10 -9 -11 -8 -5 6 3 10 9 15 12 12 3
-3 0 -11 -7 -18z m1746 4 c-2 -10 -9 -26 -16 -34 -10 -13 -8 -16 16 -19 24 -3
28 -8 29 -35 0 -18 7 -44 14 -59 13 -23 12 -29 -2 -54 -16 -29 -16 -29 10 -32
23 -3 27 -8 28 -34 0 -18 8 -43 17 -58 22 -33 22 -35 -10 -68 -23 -24 -24 -28
-10 -34 10 -3 32 -4 51 -2 32 4 34 2 49 -46 9 -28 15 -51 14 -52 -5 -5 -142
83 -143 92 0 5 -7 21 -14 37 -10 21 -11 30 -2 39 7 7 12 17 12 22 0 6 -5 5
-11 -1 -16 -16 -59 5 -59 29 0 15 -5 18 -20 13 -16 -5 -20 -2 -20 18 0 13 -9
36 -20 50 l-20 26 32 24 c18 13 44 31 56 40 22 14 22 16 5 20 -51 15 -82 17
-88 7 -7 -11 -65 24 -65 41 0 11 37 49 49 49 5 0 14 6 21 14 10 13 34 20 82
25 12 1 17 -5 15 -18z m-550 -38 c-21 -21 -27 -16 -20 20 5 26 7 27 21 13 15
-15 15 -17 -1 -33z m1070 -8 c0 -8 -4 -12 -9 -9 -5 3 -6 10 -3 15 9 13 12 11
12 -6z m27 -4 c3 -5 -2 -15 -12 -22 -15 -12 -16 -12 -5 2 7 9 10 19 6 22 -3 4
-4 7 0 7 3 0 8 -4 11 -9z m-991 -22 c36 -2 47 -7 55 -25 13 -28 7 -34 -36 -34
l-34 0 17 27 c13 19 14 25 4 21 -8 -4 -22 -9 -31 -13 -11 -4 -20 0 -28 15 -7
13 -8 20 -2 16 5 -3 30 -7 55 -7z m127 -151 c0 -8 -59 -48 -71 -48 -4 0 0 27
8 60 l16 60 23 -32 c13 -17 24 -36 24 -40z m-1744 -61 c3 -3 3 -14 0 -25 -8
-24 -49 -41 -98 -41 l-37 1 20 40 c20 40 21 40 65 35 25 -2 47 -7 50 -10z
m2177 -14 c-7 -2 -19 -2 -25 0 -7 3 -2 5 12 5 14 0 19 -2 13 -5z m-412 -214
c-14 -31 -20 -38 -20 -22 -1 22 32 89 37 74 1 -4 -6 -28 -17 -52z m13 -45 c3
-8 2 -12 -4 -9 -6 3 -10 10 -10 16 0 14 7 11 14 -7z m1196 -74 c0 -5 -2 -10
-4 -10 -3 0 -8 5 -11 10 -3 6 -1 10 4 10 6 0 11 -4 11 -10z m-2392 -395 c-3
-3 -9 2 -12 12 -6 14 -5 15 5 6 7 -7 10 -15 7 -18z"/>
<path d="M2025 4331 c-3 -5 -2 -12 3 -15 5 -3 9 1 9 9 0 17 -3 19 -12 6z"/>
<path d="M1864 2672 c23 -26 23 -26 23 -7 0 8 -3 13 -5 10 -3 -3 -12 1 -21 7
-10 8 -9 4 3 -10z"/>
<path d="M910 2134 c0 -2 9 -8 20 -14 15 -8 18 -8 14 3 -4 11 -34 21 -34 11z"/>
<path d="M5415 6024 c-4 -10 -13 -35 -22 -54 -8 -19 -17 -58 -20 -87 -3 -29
-9 -50 -13 -48 -5 3 -6 -3 -3 -14 2 -10 -6 -38 -18 -62 -12 -24 -23 -52 -24
-62 -1 -9 -12 -28 -25 -42 -23 -24 -23 -25 -3 -25 15 0 30 17 56 68 46 90 65
151 76 252 9 83 7 112 -4 74z"/>
<path d="M3710 5861 c-8 -6 -19 -7 -25 -4 -5 3 -5 0 1 -6 14 -15 46 -11 52 7
4 14 -7 15 -28 3z"/>
<path d="M2919 5833 c-9 -10 -15 -11 -26 -1 -11 9 -13 8 -11 -3 2 -8 -3 -13
-9 -11 -7 1 -12 -4 -10 -10 1 -7 -5 -11 -13 -10 -8 2 -11 0 -7 -4 11 -11 57
-13 63 -2 3 5 2 7 -3 6 -4 -2 -9 0 -10 5 -2 4 0 7 5 8 4 0 15 8 26 17 10 9 20
16 23 14 3 -2 7 -2 9 1 2 2 -3 4 -11 4 -8 0 -20 -6 -26 -14z"/>
<path d="M3766 5843 c-4 -5 -12 -8 -17 -8 -5 0 -9 -3 -9 -7 0 -5 0 -10 0 -13
0 -3 14 2 31 11 l32 16 -6 -37 c-5 -32 -4 -35 9 -24 8 7 24 25 35 41 l20 28
-44 0 c-24 0 -47 -3 -51 -7z"/>
<path d="M4893 5797 c-18 -5 -33 -14 -33 -19 0 -5 -9 -7 -19 -3 -17 5 -22 -1
-32 -37 -17 -59 -26 -68 -67 -68 -39 0 -40 -6 -2 -13 47 -9 61 -19 86 -63 14
-24 28 -44 30 -44 3 0 21 7 42 17 20 9 43 15 50 14 6 -1 12 3 12 9 0 6 4 9 9
6 5 -3 11 0 14 8 4 9 14 12 27 9 19 -5 21 -2 17 28 -2 19 0 45 6 59 5 14 13
38 18 54 8 27 7 28 -24 23 -21 -3 -35 1 -43 11 -14 19 -49 22 -91 9z m100 -59
c-5 -22 -5 -22 9 -4 12 15 17 16 23 6 5 -8 4 -11 -3 -6 -14 8 -21 -15 -11 -36
10 -19 -5 -35 -16 -18 -5 8 -12 7 -23 -2 -10 -7 -14 -8 -9 -3 4 4 -1 18 -10
29 l-18 21 24 -20 c17 -14 23 -16 19 -5 -5 14 7 60 16 60 2 0 2 -10 -1 -22z
m7 -98 c0 -5 -5 -10 -11 -10 -5 0 -7 5 -4 10 3 6 8 10 11 10 2 0 4 -4 4 -10z
m-52 -34 c1 -17 -1 -18 -8 -6 -9 13 -10 13 -10 0 0 -13 -2 -13 -9 0 -11 17 -7
27 12 27 7 0 14 -10 15 -21z m-47 -29 c-10 -9 -11 -8 -5 6 3 10 9 15 12 12 3
-3 0 -11 -7 -18z"/>
<path d="M4990 5700 c6 -11 13 -20 16 -20 2 0 0 9 -6 20 -6 11 -13 20 -16 20
-2 0 0 -9 6 -20z"/>
<path d="M3955 5779 c-9 -14 -2 -20 14 -10 8 6 9 11 3 15 -6 3 -14 1 -17 -5z"/>
<path d="M1951 5744 c0 -11 3 -14 6 -6 3 7 2 16 -1 19 -3 4 -6 -2 -5 -13z"/>
<path d="M1966 5735 c-8 -29 -8 -30 -19 -7 -11 24 -22 28 -32 12 -4 -6 -10 -8
-15 -5 -5 3 -11 1 -15 -5 -4 -6 -12 -8 -18 -4 -7 3 -3 -1 7 -10 10 -8 24 -12
30 -8 18 11 36 11 36 0 0 -6 6 -8 14 -5 8 3 16 1 19 -6 2 -6 9 3 15 21 6 18 7
30 2 27 -4 -3 -10 0 -12 7 -3 7 -8 -1 -12 -17z"/>
<path d="M2985 5751 c-3 -5 -2 -12 3 -15 5 -3 9 1 9 9 0 17 -3 19 -12 6z"/>
<path d="M3045 5741 c-3 -5 -2 -12 3 -15 5 -3 9 1 9 9 0 17 -3 19 -12 6z"/>
<path d="M3826 5722 c-3 -5 1 -9 9 -9 8 0 12 4 9 9 -3 4 -7 8 -9 8 -2 0 -6 -4
-9 -8z"/>
<path d="M3655 5639 c11 -7 22 -13 24 -15 5 -4 -26 -53 -54 -84 -30 -34 -37
-66 -17 -82 13 -11 15 -9 9 17 l-6 30 13 -29 c14 -31 23 -25 20 12 -1 18 1 20
12 11 17 -14 18 -23 2 -13 -7 5 -9 2 -5 -9 6 -16 -15 -41 -26 -30 -4 3 -7 -3
-7 -15 0 -11 -4 -24 -10 -27 -16 -10 -11 -24 8 -22 10 0 33 -5 51 -12 l32 -14
-28 -29 -28 -29 40 3 c39 3 40 3 37 -29 -2 -32 -1 -32 25 -22 16 6 44 13 63
15 56 8 55 21 -2 28 l-52 7 47 30 c26 16 47 31 47 34 0 3 -26 4 -57 3 -33 -2
-59 1 -61 7 -1 6 25 11 62 13 62 3 64 4 70 34 3 17 6 43 6 58 0 26 -3 28 -60
34 -33 4 -65 4 -72 0 -7 -4 -8 -3 -4 4 4 7 2 12 -4 12 -6 0 -8 18 -5 50 2 27
1 51 -3 54 -4 2 -25 7 -47 11 -34 5 -37 4 -20 -6z"/>
<path d="M4480 5569 c0 -6 -21 -36 -47 -67 l-48 -55 30 7 c60 14 100 40 97 61
-2 11 -3 28 -3 37 0 9 -7 19 -15 22 -8 3 -14 1 -14 -5z"/>
<path d="M2581 5494 c0 -11 3 -14 6 -6 3 7 2 16 -1 19 -3 4 -6 -2 -5 -13z"/>
<path d="M3590 5445 c8 -10 10 -16 3 -12 -6 4 -14 3 -17 -2 -3 -5 3 -11 13
-14 13 -3 18 1 17 16 -1 11 -8 23 -16 25 -13 5 -13 3 0 -13z"/>
<path d="M4590 5400 c0 -5 7 -7 15 -4 8 4 15 8 15 10 0 2 -7 4 -15 4 -8 0 -15
-4 -15 -10z"/>
<path d="M4805 5382 c-11 -2 -30 -17 -43 -33 -18 -22 -20 -27 -6 -22 11 4 23
-2 35 -18 l18 -24 27 20 c25 19 56 74 34 60 -6 -3 -10 -2 -10 3 0 12 -28 19
-55 14z"/>
<path d="M1800 5291 c0 -17 15 -19 45 -6 l30 13 -37 1 c-21 1 -38 -3 -38 -8z"/>
<path d="M1950 5270 c8 -5 20 -10 25 -10 6 0 3 5 -5 10 -8 5 -19 10 -25 10 -5
0 -3 -5 5 -10z"/>
<path d="M3550 5243 c8 -4 23 -14 34 -25 11 -10 26 -18 33 -18 7 0 13 -4 13
-10 0 -5 6 -10 13 -10 6 0 23 -12 36 -25 13 -14 29 -25 37 -25 8 0 14 -4 14
-8 0 -5 7 -9 15 -9 8 0 15 7 15 16 0 14 2 14 10 1 5 -8 10 -10 11 -5 0 6 2 18
4 27 3 17 -47 43 -60 30 -3 -4 -3 1 0 9 12 32 -30 52 -113 55 -42 1 -70 0 -62
-3z"/>
<path d="M1855 5108 c11 -37 21 -41 56 -22 36 18 34 21 -34 38 -26 6 -28 5
-22 -16z"/>
<path d="M1925 5070 c-33 -34 -15 -41 25 -10 18 13 22 22 14 30 -7 7 -19 1
-39 -20z"/>
<path d="M3756 5085 c-9 -26 -7 -32 5 -12 6 10 9 21 6 23 -2 3 -7 -2 -11 -11z"/>
<path d="M4788 5053 c12 -8 22 -23 22 -32 1 -13 3 -13 15 4 14 17 13 20 -7 32
-34 18 -58 16 -30 -4z"/>
<path d="M4480 4971 c0 -7 -4 -10 -9 -7 -5 3 -28 -8 -52 -24 -28 -19 -57 -30
-79 -30 -31 0 -35 -3 -37 -27 -1 -22 1 -24 8 -10 11 19 53 24 47 5 -2 -6 -18
-16 -35 -22 -16 -6 -38 -19 -48 -29 -9 -10 -35 -27 -56 -38 -22 -11 -44 -30
-48 -42 -10 -25 -30 -131 -26 -135 1 -2 18 10 36 25 l34 28 -40 -55 c-37 -51
-38 -54 -12 -37 15 9 39 25 55 34 15 9 39 27 53 40 14 13 40 26 58 28 17 2 47
12 67 21 35 17 84 70 84 93 0 8 13 9 43 5 l42 -6 -34 30 c-19 16 -31 34 -28
39 8 12 -14 23 -45 23 -11 0 -22 8 -25 20 -3 11 -10 17 -16 13 -6 -3 -7 -1 -3
6 6 9 11 9 24 -1 13 -11 15 -10 9 4 -4 13 -2 16 11 11 9 -3 14 -3 10 2 -4 4 0
14 10 21 9 7 14 16 9 20 -4 4 -7 2 -7 -5z"/>
<path d="M4925 4940 c-10 -11 -13 -20 -7 -20 6 0 16 9 22 20 6 11 9 20 7 20
-2 0 -12 -9 -22 -20z"/>
<path d="M2747 4725 c-20 -41 -20 -45 -7 -45 8 0 33 70 27 77 -2 1 -11 -13
-20 -32z"/>
<path d="M3652 4738 c-18 -18 -16 -22 35 -58 l46 -33 -29 51 c-31 56 -34 58
-52 40z"/>
<path d="M2735 4620 c-18 -19 -17 -20 13 -26 18 -4 29 -10 27 -14 -3 -5 6 -22
20 -38 15 -18 23 -37 19 -46 -4 -11 0 -16 13 -16 28 0 46 -35 31 -60 -11 -17
-10 -22 2 -30 8 -5 11 -10 5 -10 -5 -1 17 -12 50 -26 33 -13 69 -29 79 -35 16
-9 22 -8 32 7 8 11 19 25 25 33 9 10 9 15 -2 22 -19 12 -66 11 -74 -1 -15 -24
-35 -9 -35 25 0 19 -3 35 -7 35 -5 0 -23 14 -42 30 l-34 30 23 25 c13 14 18
25 12 25 -7 0 -12 -4 -12 -10 0 -5 -7 -6 -17 -3 -9 4 -14 2 -10 -3 3 -5 -3
-10 -14 -10 -13 0 -22 9 -26 26 -7 30 -42 90 -52 90 -4 0 -16 -9 -26 -20z"/>
<path d="M4019 4084 c-6 -8 -20 -12 -29 -9 -21 7 -52 -4 -45 -15 5 -9 -27 -23
-41 -18 -17 5 -146 -66 -161 -89 -10 -14 -40 -30 -84 -45 -73 -23 -87 -36 -23
-20 98 25 96 25 84 1 -11 -19 -18 -21 -86 -17 -41 2 -74 3 -74 2 0 -4 151 -54
164 -54 31 0 15 -33 -60 -121 -42 -49 -75 -92 -72 -94 2 -3 37 22 76 56 40 33
72 57 72 54 0 -3 -16 -37 -35 -76 -25 -48 -48 -78 -75 -97 -22 -15 -39 -30
-40 -34 0 -5 17 -8 38 -8 58 0 67 -11 47 -51 -22 -42 -32 -49 -74 -49 l-33 0
7 48 7 47 -48 -45 c-27 -25 -51 -48 -54 -51 -3 -3 -19 -13 -36 -22 -46 -24
-113 -15 -180 22 -31 18 -60 29 -64 24 -16 -19 -51 -83 -45 -83 3 0 26 14 51
30 24 17 44 29 44 27 0 -2 -7 -25 -16 -51 -16 -47 -17 -48 -51 -43 -45 8 -62
0 -56 -24 3 -10 0 -19 -6 -19 -28 0 -6 -18 43 -34 36 -12 69 -34 97 -62 l43
-44 -27 -55 c-15 -30 -25 -55 -23 -55 2 0 20 7 39 15 40 17 127 20 127 5 0
-19 75 -7 99 16 18 19 27 21 42 13 15 -7 26 -5 49 12 16 12 26 27 23 33 -3 6
-3 8 2 4 4 -4 21 0 37 8 23 12 27 18 18 29 -7 8 -9 19 -5 25 3 5 1 10 -6 10
-24 0 12 28 77 60 72 35 84 32 84 -23 l0 -28 23 26 c21 25 26 26 135 27 61 0
112 4 112 8 0 5 8 11 19 15 11 3 23 23 31 50 l13 45 43 -36 c50 -40 52 -39 23
10 l-21 36 27 0 c18 0 24 -4 19 -12 -5 -7 5 -3 20 9 15 13 44 25 63 29 28 5
32 9 19 16 -9 5 -16 13 -16 18 0 5 -13 30 -29 55 -28 44 -28 48 -16 93 15 60
30 89 64 125 20 22 26 39 28 80 0 29 2 54 3 57 1 3 1 28 0 57 -1 48 1 53 24
59 28 7 26 24 -3 24 -10 0 -30 9 -44 20 -14 11 -31 20 -39 20 -7 0 -21 9 -31
20 -12 14 -29 20 -58 20 -31 0 -42 4 -46 18 -4 16 -16 19 -88 20 -62 1 -86 -2
-96 -14z m-644 -789 c22 -4 44 -10 49 -13 12 -7 103 -3 130 5 17 5 18 1 12
-33 -11 -70 -17 -97 -22 -106 -16 -25 -119 23 -110 52 20 66 21 63 -3 48 -12
-7 -24 -20 -26 -29 -4 -10 -14 -15 -30 -14 -38 5 -45 13 -45 58 -1 39 -2 41
-15 23 -11 -14 -15 -16 -15 -5 -1 10 -3 9 -11 -4 -6 -9 -15 -14 -21 -11 -7 5
-9 1 -5 -9 3 -10 2 -17 -3 -17 -6 0 -10 5 -10 10 0 6 -7 10 -16 10 -9 0 -12
-5 -8 -12 5 -7 3 -8 -6 -3 -10 6 -10 10 2 19 8 6 13 18 10 26 -3 9 2 7 13 -5
13 -16 15 -16 11 -3 -6 21 19 45 29 27 6 -8 11 -6 18 6 9 17 11 17 21 2 7 -8
30 -19 51 -22z"/>
<path d="M3306 3303 c-6 -14 -5 -15 5 -6 7 7 10 15 7 18 -3 3 -9 -2 -12 -12z"/>
<path d="M3266 3302 c-2 -4 -1 -14 3 -21 6 -10 10 -9 14 3 6 16 -8 32 -17 18z"/>
<path d="M2106 4014 c-9 -37 -15 -68 -13 -71 6 -6 57 8 57 16 0 3 10 7 23 8
12 0 35 6 51 12 l28 11 -38 28 c-22 16 -51 36 -65 45 l-26 18 -17 -67z"/>
<path d="M2170 3865 c0 -3 8 -22 17 -43 l17 -37 4 34 c2 21 -2 37 -10 42 -15
10 -28 11 -28 4z"/>
<path d="M3245 3842 c-3 -3 2 -14 12 -24 15 -17 17 -17 35 -2 10 10 18 21 18
25 0 8 -56 9 -65 1z"/>
<path d="M2296 3806 c10 -8 21 -12 24 -10 5 6 -21 24 -34 24 -6 0 -1 -6 10
-14z"/>
<path d="M3149 3552 c-9 -2 -28 -33 -45 -75 -16 -39 -31 -76 -33 -80 -2 -5 15
3 38 17 23 15 55 26 75 26 43 0 57 26 21 40 -16 6 -23 15 -19 24 8 20 -17 53
-37 48z"/>
<path d="M2315 3444 l-16 -25 25 16 c14 10 23 21 20 26 -8 13 -10 12 -29 -17z"/>
<path d="M3037 3293 c-4 -3 -7 -14 -7 -23 0 -26 26 -20 28 7 2 22 -8 30 -21
16z"/>
<path d="M2985 3270 c-3 -6 -3 -10 2 -11 4 0 -2 -4 -14 -9 -13 -5 -23 -17 -23
-27 0 -15 2 -15 13 -2 25 31 45 41 53 28 5 -8 3 -9 -6 -4 -9 6 -11 4 -5 -5 6
-9 4 -11 -5 -5 -9 5 -11 4 -6 -3 5 -8 2 -10 -8 -6 -9 3 -16 2 -16 -3 0 -11 39
-11 58 0 6 5 17 5 22 2 6 -3 10 -1 10 4 0 6 -7 11 -15 11 -9 0 -19 8 -23 18
-8 20 -28 26 -37 12z"/>
<path d="M3763 3174 c-3 -8 -9 -11 -14 -8 -5 3 -6 -2 -3 -10 8 -20 7 -20 44 3
l31 18 -26 5 c-17 4 -28 1 -32 -8z"/>
<path d="M3963 3178 c-26 -13 -30 -28 -7 -28 8 0 12 5 9 10 -3 6 1 10 9 10 9
0 16 5 16 10 0 12 1 12 -27 -2z"/>
<path d="M2696 2963 c-6 -14 -5 -15 5 -6 7 7 10 15 7 18 -3 3 -9 -2 -12 -12z"/>
<path d="M2626 2947 c3 -10 9 -15 12 -12 3 3 0 11 -7 18 -10 9 -11 8 -5 -6z"/>
<path d="M2655 2952 c2 -3 0 -14 -6 -26 -9 -19 -9 -19 4 -4 8 10 16 16 19 13
2 -3 5 1 5 8 0 8 -6 14 -14 14 -7 0 -11 -2 -8 -5z"/>
<path d="M4795 2939 c11 -6 25 -18 31 -25 9 -12 14 -11 28 4 11 13 12 19 4 19
-7 1 -29 4 -48 8 -30 5 -32 5 -15 -6z"/>
<path d="M2666 2912 c-3 -5 1 -9 9 -9 8 0 12 4 9 9 -3 4 -7 8 -9 8 -2 0 -6 -4
-9 -8z"/>
<path d="M4740 2807 c0 -9 5 -19 12 -23 7 -5 8 -3 3 7 -8 12 -6 12 8 0 21 -17
21 -20 1 -17 -9 1 -22 9 -28 18 -10 13 -13 13 -25 1 -10 -11 -10 -18 -2 -26 6
-6 11 -7 11 -1 0 5 4 3 9 -5 8 -12 12 -12 24 -2 9 7 17 8 19 2 1 -5 9 -11 17
-13 15 -3 24 29 10 38 -5 3 -7 9 -4 14 3 4 -3 7 -12 5 -10 -1 -24 2 -30 8 -9
7 -13 5 -13 -6z m56 -43 c1 -9 -1 -13 -4 -9 -4 4 -7 10 -7 13 0 4 -4 14 -9 22
-7 12 -6 13 4 3 8 -7 15 -20 16 -29z m-55 9 c12 -16 12 -17 -2 -6 -9 7 -20 9
-24 5 -5 -4 -5 -1 -1 6 9 16 11 15 27 -5z"/>
<path d="M4675 2770 c3 -5 8 -10 11 -10 2 0 4 5 4 10 0 6 -5 10 -11 10 -5 0
-7 -4 -4 -10z"/>
<path d="M5220 2343 c1 -13 24 -39 41 -45 9 -4 19 -23 23 -42 4 -20 13 -36 21
-36 8 0 11 -7 8 -21 -4 -12 -11 -18 -20 -15 -9 4 -11 2 -7 -6 5 -8 2 -9 -10
-5 -9 4 -15 3 -12 -1 3 -5 -20 -23 -50 -42 -30 -18 -53 -34 -51 -36 2 -2 30 7
63 20 102 41 99 41 131 -4 17 -22 32 -37 35 -35 3 3 3 -6 0 -20 -3 -18 1 -30
14 -40 18 -13 16 -16 -31 -59 -27 -25 -53 -45 -57 -46 -5 0 -8 -3 -8 -7 0 -5
34 -6 76 -3 64 4 78 2 92 -13 9 -10 24 -16 33 -14 13 3 16 0 12 -11 -4 -10 -2
-13 5 -8 9 5 9 0 2 -20 l-11 -27 75 5 c42 3 82 11 91 18 10 8 15 9 15 1 0 -6
9 -11 20 -11 11 0 20 5 20 12 0 6 -3 8 -7 5 -3 -4 -17 3 -29 14 -19 18 -26 20
-38 10 -13 -11 -14 -8 -9 23 5 32 3 37 -23 48 -18 8 -28 19 -26 29 3 14 -35
48 -55 50 -15 1 -33 21 -56 64 l-25 43 21 21 c28 27 17 35 -29 22 -41 -11 -54
-7 -36 11 15 15 16 42 2 33 -5 -3 -10 -1 -10 4 0 6 4 11 10 11 14 0 -46 59
-72 71 -21 8 -20 9 7 5 l30 -5 -33 15 c-26 11 -37 12 -48 3 -11 -9 -14 -8 -14
5 0 10 -5 14 -11 10 -6 -3 -14 -2 -18 3 -8 13 -51 27 -51 16z m230 -279 c0 -8
-19 -13 -24 -6 -3 5 1 9 9 9 8 0 15 -2 15 -3z m120 -180 c0 -8 -19 -13 -24 -6
-3 5 1 9 9 9 8 0 15 -2 15 -3z"/>
<path d="M3080 2146 c0 -31 6 -34 13 -6 3 11 1 23 -4 26 -5 3 -9 -6 -9 -20z"/>
<path d="M5117 1994 c-36 -30 -34 -34 11 -23 51 12 58 11 76 -7 12 -11 16 -12
16 -2 0 21 -13 34 -45 45 -27 9 -35 7 -58 -13z"/>
<path d="M523 1973 c-7 -3 -13 -14 -13 -26 0 -21 0 -21 16 1 17 25 16 32 -3
25z"/>
<path d="M598 1935 c-4 -38 2 -36 20 8 9 22 9 27 -2 27 -8 0 -15 -14 -18 -35z"/>
<path d="M81 1911 c-13 -11 -20 -25 -16 -30 3 -6 -1 -11 -10 -11 -9 0 -25 -10
-36 -22 -15 -19 -18 -39 -18 -108 l0 -85 14 40 c8 22 15 46 15 53 0 7 11 29
24 50 13 20 27 54 30 75 5 28 12 37 27 37 11 0 17 5 14 10 -9 15 -19 12 -44
-9z"/>
<path d="M5970 1841 c0 -6 5 -13 10 -16 6 -3 10 1 10 9 0 9 -4 16 -10 16 -5 0
-10 -4 -10 -9z"/>
<path d="M4770 1786 c55 -17 62 -25 58 -62 -2 -19 -1 -34 3 -34 13 0 29 27 25
41 -2 8 -7 25 -10 39 -5 23 -10 25 -58 26 -53 1 -53 1 -18 -10z"/>
<path d="M446 1708 c-8 -39 -4 -59 11 -53 8 3 17 5 19 5 3 0 2 4 -1 10 -3 5 0
7 9 4 33 -13 36 9 5 32 -40 29 -38 29 -43 2z"/>
<path d="M4460 1690 c-9 -6 -10 -10 -3 -10 6 0 15 5 18 10 8 12 4 12 -15 0z"/>
<path d="M4765 1671 c-3 -6 2 -15 12 -20 42 -25 56 -42 58 -73 3 -39 -9 -58
-39 -59 -16 -1 -14 -3 9 -10 22 -6 14 -7 -28 -3 -67 5 -68 -5 -4 -38 61 -32
66 -31 73 13 4 21 10 39 15 39 5 0 9 5 9 11 0 5 -4 8 -9 4 -6 -3 -8 17 -5 50
3 30 1 55 -4 55 -5 0 -19 9 -32 20 -25 22 -45 26 -55 11z"/>
<path d="M5042 1663 c6 -7 7 -13 3 -13 -4 0 -3 -6 3 -12 15 -20 -1 -187 -20
-199 -5 -3 -10 -47 -10 -97 -1 -51 -5 -92 -8 -92 -4 0 -12 -11 -18 -25 -9 -19
-19 -25 -44 -26 -68 -1 -73 -14 -13 -33 39 -12 59 -24 64 -40 5 -12 16 -28 25
-35 23 -19 20 -31 -16 -69 l-33 -34 43 26 c39 24 62 27 62 7 0 -4 -16 -15 -36
-25 -47 -22 -41 -27 19 -14 40 8 46 12 36 24 -9 12 -9 17 3 27 8 7 20 39 26
73 10 52 10 67 -3 98 -15 35 -15 40 4 79 16 34 18 50 11 88 -5 26 -5 62 0 84
5 24 5 46 -1 58 -6 10 -8 26 -4 34 3 9 0 20 -7 24 -7 5 -11 24 -10 46 3 38 3
38 -42 49 -37 8 -43 8 -34 -3z"/>
<path d="M4419 1650 c-20 -16 -21 -19 -7 -20 10 0 22 9 28 20 13 25 8 25 -21
0z"/>
<path d="M408 1612 c-17 -7 -17 -8 1 -19 16 -10 20 -9 24 8 5 20 2 22 -25 11z"/>
<path d="M6201 1601 c-15 -10 -67 -52 -116 -96 l-30 -26 60 5 60 6 -53 -25
c-39 -18 -58 -22 -71 -15 -10 5 -21 6 -25 3 -3 -3 -6 -1 -6 5 0 8 -7 9 -27 1
-39 -15 -76 -19 -89 -8 -6 5 -21 6 -35 2 -13 -3 -50 -6 -82 -7 -37 -1 -63 -7
-73 -18 -18 -17 -11 -38 12 -38 8 0 14 -4 14 -9 0 -5 8 -8 17 -7 10 0 19 -7
21 -18 2 -10 0 -16 -6 -12 -6 3 -12 2 -14 -4 -1 -5 -23 -12 -48 -15 -25 -3
-57 -8 -72 -11 -18 -3 -28 -1 -28 6 0 6 5 8 10 5 6 -4 10 -3 9 2 -1 4 1 16 6
26 11 26 0 31 -35 17 -22 -9 -27 -15 -19 -21 7 -4 17 -5 23 -2 5 4 6 1 1 -6
-9 -15 14 -63 26 -55 5 3 6 -3 2 -12 -5 -13 -3 -15 7 -9 9 6 11 4 5 -5 -17
-28 -11 -56 12 -58 20 -2 21 1 13 22 -8 22 -6 25 28 31 20 3 48 9 62 12 18 3
12 -4 -23 -28 -26 -17 -46 -33 -45 -35 3 -3 43 5 116 21 18 4 22 2 20 -12 -2
-10 -5 -20 -8 -23 -11 -11 -54 -106 -54 -116 1 -8 -6 -7 -24 1 -13 8 -31 11
-39 8 -11 -4 -6 -14 19 -42 19 -20 43 -49 53 -65 18 -30 18 -30 26 -7 l9 22
37 -20 c32 -17 72 -27 128 -32 6 0 31 0 58 2 40 2 52 -2 75 -24 l28 -26 14 22
c8 12 20 34 27 49 7 16 23 33 38 40 14 6 25 15 25 20 0 18 137 2 167 -20 37
-26 62 -15 46 20 -6 14 -9 37 -6 52 4 17 -1 33 -12 46 -11 12 -18 39 -20 71
-2 28 -8 56 -14 62 -6 6 -11 23 -11 37 0 32 -45 129 -63 136 -8 3 -12 16 -9
34 5 33 -14 98 -35 118 -11 12 -20 11 -56 -3 l-42 -17 24 26 c24 25 20 34 -8
17z m-365 -447 c1 -9 0 -13 -3 -10 -4 3 -13 0 -22 -6 -12 -10 -12 -7 2 8 9 11
15 24 12 27 -3 4 -2 5 2 2 4 -3 8 -13 9 -21z m27 -44 c-7 -25 -23 -27 -18 -2
2 9 4 18 4 20 1 1 5 2 10 2 5 0 7 -9 4 -20z m-33 -15 c-7 -8 -16 -13 -20 -10
-5 3 -12 0 -16 -6 -4 -7 -3 -9 3 -6 6 4 10 -8 10 -28 0 -35 -13 -41 -34 -15
-8 10 -8 19 -1 27 6 7 7 13 2 13 -5 0 5 9 21 20 36 24 52 26 35 5z m10 -25
c-6 -4 -11 -10 -11 -14 3 -18 0 -26 -8 -26 -6 0 -8 9 -6 20 6 29 15 41 27 34
7 -4 6 -9 -2 -14z"/>
<path d="M4310 1523 c-19 -8 -48 -42 -61 -72 -15 -37 -2 -37 16 1 9 18 29 43
43 55 28 23 28 26 2 16z"/>
<path d="M385 1471 c-3 -5 -1 -12 5 -16 5 -3 10 1 10 9 0 18 -6 21 -15 7z"/>
<path d="M4775 1425 c39 -32 52 -36 58 -16 3 14 0 17 -13 14 -10 -3 -29 0 -41
7 -23 11 -23 11 -4 -5z"/>
<path d="M372 1408 c-6 -6 -12 -17 -12 -24 0 -7 -9 -10 -22 -7 -23 5 -23 5 -3
-10 28 -22 34 -21 46 10 12 32 8 48 -9 31z"/>
<path d="M4216 1413 c-12 -12 -6 -31 13 -36 14 -3 17 0 14 14 -6 22 -17 31
-27 22z"/>
<path d="M460 1375 c0 -18 21 -28 45 -23 12 2 8 8 -14 21 -27 16 -31 16 -31 2z"/>
<path d="M4148 1355 c-34 -18 -46 -29 -41 -41 3 -8 11 -13 18 -10 8 3 16 -6
20 -21 7 -29 21 -21 28 17 3 14 10 37 16 53 6 15 9 27 8 27 -1 -1 -23 -12 -49
-25z"/>
<path d="M4727 1296 c-101 -56 -103 -59 -21 -35 124 36 121 36 116 -5 l-4 -36
-82 -1 c-72 -1 -167 -15 -124 -18 9 0 57 -10 107 -22 l91 -21 0 -42 c0 -24 -3
-45 -6 -49 -4 -3 -41 16 -83 44 l-76 50 78 -74 c65 -63 77 -79 78 -108 l1 -34
9 30 c5 17 11 75 13 131 2 64 9 111 19 130 13 25 13 32 1 49 -8 10 -14 27 -14
37 0 26 -16 22 -103 -26z"/>
<path d="M1639 1313 c-13 -16 -12 -17 4 -4 9 7 17 15 17 17 0 8 -8 3 -21 -13z"/>
<path d="M4048 1282 c-13 -15 -31 -31 -41 -35 -9 -3 -17 -12 -17 -18 0 -7 9
-6 25 5 13 9 33 16 45 16 16 0 20 6 20 30 0 17 -2 30 -4 30 -2 0 -15 -13 -28
-28z"/>
<path d="M1281 1141 l-34 -18 31 -22 c33 -23 36 -22 47 27 7 36 4 37 -44 13z"/>
<path d="M3837 1109 c7 -7 15 -10 18 -7 3 3 -2 9 -12 12 -14 6 -15 5 -6 -5z"/>
<path d="M4010 1072 c0 -12 19 -26 26 -19 2 2 -2 10 -11 17 -9 8 -15 8 -15 2z"/>
<path d="M1286 1053 c-6 -14 -5 -15 5 -6 7 7 10 15 7 18 -3 3 -9 -2 -12 -12z"/>
<path d="M5424 1044 c4 -14 0 -27 -15 -40 -36 -32 -42 -62 -19 -94 11 -15 20
-33 20 -40 0 -6 5 -8 13 -4 9 6 9 4 -1 -8 -9 -12 -10 -18 -2 -23 7 -4 9 -18 6
-32 -9 -35 1 -44 36 -29 57 25 61 66 6 66 l-31 0 8 58 c4 31 7 64 7 72 1 8 4
20 7 25 13 18 6 37 -18 53 -23 15 -23 15 -17 -4z"/>
<path d="M3958 1034 c-15 -8 -30 -23 -33 -34 -4 -12 -15 -20 -27 -20 -12 0
-18 -3 -15 -7 4 -3 25 -6 47 -5 48 2 51 -12 15 -54 -20 -23 -25 -40 -25 -84 0
-61 -5 -72 -38 -89 -13 -7 -21 -15 -19 -18 3 -2 15 0 26 7 19 10 23 8 31 -17
11 -30 70 -72 70 -50 0 18 -21 37 -40 37 -12 0 -16 8 -15 30 1 17 -1 30 -5 30
-4 0 -5 14 -2 31 3 20 13 34 29 42 17 7 23 17 19 29 -2 11 2 31 10 46 8 15 14
33 14 41 0 8 12 29 26 48 14 19 24 36 22 39 -12 12 -66 11 -90 -2z"/>
<path d="M223 883 c4 -3 -1 -16 -10 -27 -18 -21 -18 -21 4 -2 20 16 23 36 6
36 -4 0 -3 -3 0 -7z"/>
<path d="M195 870 c-4 -6 -10 -8 -15 -5 -13 8 -5 -24 8 -35 9 -7 9 -7 2 2 -7
8 -4 18 7 30 9 10 13 18 10 18 -3 0 -9 -5 -12 -10z"/>
<path d="M133 835 c0 -8 4 -12 9 -9 5 3 6 10 3 15 -9 13 -12 11 -12 -6z"/>
<path d="M4799 833 c-7 -8 -23 -64 -35 -125 -12 -60 -33 -133 -47 -161 -14
-29 -38 -89 -53 -134 -32 -90 -29 -88 -152 -108 -59 -9 -46 -21 76 -67 53 -20
96 -41 94 -47 -1 -6 2 -11 8 -11 5 0 10 -13 10 -29 l0 -28 -297 -61 -298 -60
403 -1 403 -1 -2 77 c-1 62 5 92 26 147 14 38 36 77 48 86 12 10 33 27 47 38
l25 21 -32 11 c-18 7 -33 17 -33 23 1 36 17 60 56 83 45 27 52 38 33 50 -8 4
-7 9 2 15 10 6 10 9 2 9 -7 0 -19 14 -28 30 -9 17 -13 30 -9 30 3 0 -3 16 -15
36 -19 32 -20 37 -6 64 l15 30 -25 -10 c-37 -14 -55 -12 -55 5 0 9 10 15 28
16 15 1 38 5 52 10 17 6 3 8 -48 5 -68 -3 -74 -2 -100 25 -38 39 -77 52 -93
32z"/>
<path d="M1475 830 c-3 -6 1 -12 9 -15 9 -3 24 -7 33 -10 15 -5 15 -3 -2 15
-20 22 -31 25 -40 10z"/>
<path d="M5370 718 l-35 -20 36 6 36 6 -11 -34 -11 -35 -22 21 c-34 32 -37 17
-8 -47 14 -32 25 -74 26 -94 1 -33 2 -31 14 19 28 123 28 123 17 116 -7 -4 -6
4 1 25 9 25 9 33 -1 36 -6 3 -10 9 -6 14 6 11 7 11 -36 -13z"/>
<path d="M1800 703 c0 -6 -7 -19 -16 -28 -9 -9 -13 -19 -10 -23 4 -3 10 -2 14
4 4 5 14 9 22 9 8 -1 21 4 29 9 8 6 16 9 19 6 2 -3 11 4 18 15 13 20 11 21
-31 21 -29 0 -45 -5 -45 -13z m41 -2 c7 12 9 11 9 -1 0 -13 1 -13 11 0 9 13
10 13 6 0 -2 -8 -9 -16 -15 -16 -7 -1 -13 -2 -14 -4 -2 -1 -11 -3 -20 -5 -14
-3 -15 0 -5 16 7 11 14 14 16 8 2 -8 6 -7 12 2z"/>
<path d="M1646 664 c-5 -14 -4 -15 9 -4 17 14 19 20 6 20 -5 0 -12 -7 -15 -16z"/>
<path d="M4446 644 c-5 -14 -4 -15 9 -4 17 14 19 20 6 20 -5 0 -12 -7 -15 -16z"/>
<path d="M1840 632 c0 -4 -14 -23 -31 -41 l-30 -33 22 -24 c26 -28 28 -27 34
12 3 16 7 44 10 62 3 17 3 32 0 32 -3 0 -5 -3 -5 -8z"/>
<path d="M4360 615 c-13 -14 -28 -25 -32 -25 -13 0 -76 -68 -70 -75 3 -3 -21
-6 -54 -7 -58 -2 -58 -2 -10 -5 42 -4 47 -7 43 -24 -4 -15 6 -10 41 21 85 76
97 85 124 97 19 8 26 18 22 28 -9 23 -37 18 -64 -10z"/>
<path d="M6068 595 c-25 -41 -44 -52 -81 -46 -10 2 10 -36 23 -44 23 -14 7
-25 -39 -25 -68 0 -71 -14 -8 -30 86 -21 87 -25 15 -58 -49 -22 -67 -36 -72
-55 -3 -14 -8 -32 -12 -40 -3 -9 7 -22 30 -35 44 -26 45 -38 6 -60 -16 -9 -30
-21 -30 -25 0 -5 6 -5 13 0 20 12 38 12 30 0 -4 -6 -7 -26 -6 -43 0 -22 -4
-31 -15 -30 -16 1 -26 -31 -11 -40 5 -3 9 0 9 7 0 7 3 9 6 6 4 -4 1 -13 -6
-22 -7 -9 -10 -18 -7 -21 3 -3 11 4 17 16 9 16 8 25 -1 36 -10 12 -10 15 0 12
13 -3 15 3 24 75 3 21 8 41 11 44 3 3 21 -6 41 -21 l35 -27 10 25 c5 14 12 47
16 73 l6 48 -38 14 c-29 11 -34 15 -21 22 8 5 36 38 61 73 37 52 46 72 44 100
-2 20 -6 36 -10 36 -4 0 -8 18 -10 40 l-3 41 -27 -46z m-68 -209 c0 -2 -8 -10
-17 -17 -16 -13 -17 -12 -4 4 13 16 21 21 21 13z m-48 -28 c-9 -9 -9 -15 1
-27 11 -14 10 -14 -6 -2 -13 10 -15 17 -6 27 6 8 14 14 17 14 3 0 1 -5 -6 -12z
m34 -34 c0 -20 -11 -25 -11 -6 0 4 -3 12 -7 18 -4 6 -1 11 5 11 7 0 13 -11 13
-23z m-51 -3 c3 -5 2 -12 -3 -15 -5 -3 -9 1 -9 9 0 17 3 19 12 6z"/>
<path d="M1716 614 c-23 -23 -20 -30 4 -9 11 10 20 20 20 22 0 7 -9 2 -24 -13z"/>
<path d="M6441 610 c-1 -9 4 -21 11 -28 8 -8 8 -15 -2 -27 -11 -13 -11 -18 -1
-24 6 -4 11 -12 9 -17 -1 -5 1 -29 5 -53 5 -28 4 -48 -4 -57 -9 -11 -7 -14 10
-14 11 0 21 -3 21 -7 0 -5 9 -19 20 -33 17 -21 21 -23 30 -10 15 23 12 47 -15
105 -13 30 -22 61 -19 70 4 8 1 15 -6 15 -6 0 -8 4 -5 10 3 5 -4 17 -16 27
-11 10 -25 27 -29 38 -6 14 -9 15 -9 5z m42 -85 c4 -8 3 -16 -1 -19 -4 -3 -9
4 -9 15 -2 23 3 25 10 4z"/>
<path d="M3994 586 c-10 -39 1 -54 14 -18 6 18 7 34 2 37 -5 3 -12 -5 -16 -19z"/>
<path d="M6475 601 c-3 -5 -2 -12 3 -15 5 -3 9 1 9 9 0 17 -3 19 -12 6z"/>
<path d="M1530 542 c0 -5 10 -17 22 -28 l21 -19 -18 28 c-18 28 -25 33 -25 19z"/>
<path d="M5530 477 c-25 -11 -46 -23 -48 -27 -2 -5 -19 -4 -38 2 -59 16 -62 2
-6 -22 l53 -23 -43 -44 -43 -44 39 16 c54 23 55 13 1 -21 -25 -16 -45 -31 -45
-34 0 -3 24 -21 52 -40 46 -31 108 -49 108 -32 0 4 11 8 25 8 20 2 25 -3 25
-22 0 -16 -6 -24 -17 -24 -15 0 -14 -2 2 -14 21 -15 30 -11 -104 -46 -21 -6
-51 -12 -67 -15 -16 -2 -105 -24 -199 -49 l-170 -44 463 -1 463 0 162 74 c89
41 159 75 155 75 -30 0 -357 -106 -374 -122 -21 -19 -21 -19 -20 4 1 13 0 28
-3 33 -11 21 -9 36 10 49 12 8 18 23 17 39 -3 30 -13 25 -13 -6 0 -12 -5 -21
-11 -20 -13 3 -28 -42 -19 -56 2 -5 -3 -15 -12 -22 -14 -12 -16 -12 -8 0 4 8
9 30 11 49 3 32 2 33 -10 16 -8 -10 -13 -26 -11 -35 2 -8 -3 -16 -11 -16 -11
0 -11 3 -1 16 10 12 9 14 -3 9 -12 -4 -16 1 -16 18 0 13 2 21 5 19 2 -3 11 3
19 13 9 11 9 8 -2 -11 -9 -15 -12 -27 -7 -27 6 0 18 13 27 29 16 27 19 28 30
13 16 -21 18 -8 3 20 -11 21 -12 21 -25 3 -8 -10 -14 -15 -14 -11 0 4 -13 0
-28 -10 -22 -12 -28 -23 -26 -43 2 -14 1 -18 -2 -8 -3 11 -12 16 -20 13 -8 -3
-14 1 -14 8 0 8 -17 16 -45 20 -25 3 -55 10 -65 16 -20 11 -20 11 -1 48 10 20
22 48 26 60 6 22 5 23 -14 13 -20 -11 -21 -9 -21 34 0 32 -3 44 -12 39 -6 -4
-8 -3 -4 4 3 6 1 22 -6 36 -9 20 -8 31 1 50 30 54 -23 77 -99 43z m50 -203 c8
-8 9 -14 3 -12 -6 2 -11 -1 -12 -7 -1 -5 4 -11 9 -11 20 -3 21 -4 14 -15 -4
-8 -9 -8 -17 0 -7 7 -15 7 -26 -2 -14 -11 -14 -10 -2 6 7 9 10 17 6 17 -4 0
-2 6 4 13 6 8 8 17 4 20 -3 4 -4 7 -1 7 3 0 11 -7 18 -16z m303 -255 c-8 -8
-13 -7 -18 2 -5 8 -4 10 3 5 7 -4 12 -2 12 5 0 7 3 9 7 6 4 -4 2 -12 -4 -18z"/>
<path d="M6514 312 c3 -6 -6 -19 -21 -30 l-28 -20 35 -15 c32 -13 37 -13 54 4
16 15 17 20 6 34 -16 19 -56 42 -46 27z"/>
<path d="M5241 270 c0 -33 1 -34 10 -11 6 16 6 28 -1 35 -7 7 -10 -1 -9 -24z"/>
<path d="M5355 240 c-15 -16 -31 -28 -34 -26 -3 2 -35 -7 -71 -20 -39 -13 -55
-23 -42 -23 13 -1 60 -17 105 -36 44 -19 83 -35 86 -35 2 0 -7 13 -22 28 l-27
28 19 57 c11 31 19 57 17 57 -1 0 -15 -13 -31 -30z"/>
<path d="M6582 150 c0 -14 2 -19 5 -12 2 6 2 18 0 25 -3 6 -5 1 -5 -13z"/>
</g>
</svg>
