<?xml version="1.0" standalone="no"?>
<!DOCTYPE svg PUBLIC "-//W3C//DTD SVG 20010904//EN"
 "http://www.w3.org/TR/2001/REC-SVG-20010904/DTD/svg10.dtd">
<svg version="1.0" xmlns="http://www.w3.org/2000/svg"
 width="700.000000pt" height="700.000000pt" viewBox="0 0 700.000000 700.000000"
 preserveAspectRatio="xMidYMid meet">
<metadata>
Created by potrace 1.11, written by Peter Selinger 2001-2013
</metadata>
<g transform="translate(0.000000,700.000000) scale(0.100000,-0.100000)"
fill="#000000" stroke="none">
<path d="M2219 6731 c-92 -48 -120 -70 -209 -159 -113 -114 -110 -103 -41
-168 18 -18 31 -36 28 -41 -3 -4 -48 -28 -101 -53 -52 -25 -95 -47 -96 -50 0
-4 47 -53 104 -110 l104 -104 -52 -53 c-48 -50 -51 -55 -52 -107 -1 -53 1 -57
52 -107 l52 -52 -52 -52 c-52 -51 -53 -52 -52 -111 2 -78 89 -339 160 -477
l52 -102 -1 -530 0 -530 47 -94 c26 -52 49 -100 52 -107 3 -8 -17 -35 -44 -60
-28 -26 -50 -51 -50 -57 0 -5 23 -30 50 -57 l50 -48 0 -163 0 -163 -51 -52
c-49 -49 -52 -56 -54 -109 -3 -53 -6 -60 -52 -104 -31 -30 -86 -66 -155 -100
l-106 -53 -107 0 -107 -1 -97 -50 c-76 -39 -110 -50 -160 -55 -61 -5 -66 -7
-113 -56 l-48 -50 -108 0 -107 0 -98 -98 c-54 -54 -106 -102 -115 -107 -9 -4
-62 -8 -117 -7 l-100 1 -150 -100 c-115 -77 -175 -125 -262 -212 l-113 -113 0
-955 0 -955 3450 0 3450 0 0 268 c0 148 3 272 8 276 4 4 7 11 8 14 0 4 19 44
42 89 42 82 42 83 42 195 0 109 -2 117 -52 271 -50 151 -56 161 -104 210 l-52
52 0 185 c0 278 6 246 -51 244 -27 0 -54 2 -59 5 -5 3 -55 76 -112 161 -56 85
-126 178 -155 206 l-53 52 -160 0 -161 1 -149 100 c-83 55 -175 124 -206 153
-55 52 -57 54 -59 111 l-1 57 -53 0 -53 0 0 54 0 53 -46 1 c-26 1 -49 3 -51 6
-2 2 18 48 46 102 l50 99 -100 3 c-54 1 -99 5 -99 8 0 2 20 24 45 48 25 25 45
47 45 50 0 3 -20 4 -45 2 -25 -2 -47 0 -49 3 -2 3 20 51 48 105 l51 100 -105
103 c-70 68 -101 106 -94 113 5 5 52 30 103 55 l94 46 -53 54 -54 55 52 51
c29 28 52 54 53 58 1 3 2 75 3 160 l1 154 -103 51 c-56 28 -101 54 -100 58 2
3 72 52 156 108 l154 102 -104 50 c-57 28 -105 52 -107 54 -1 1 45 74 103 161
l106 158 -157 157 c-86 87 -155 159 -153 161 3 2 50 19 105 37 55 18 124 41
153 52 l52 19 0 53 c0 51 2 55 52 105 l53 51 -52 103 c-29 56 -49 105 -45 109
4 3 70 27 147 53 77 25 145 47 151 50 7 2 -9 44 -42 109 l-54 105 22 12 c13 7
59 30 103 52 44 21 81 40 83 42 2 1 -21 51 -50 109 l-53 107 55 53 55 53 -1
99 c-1 54 -2 104 -3 109 -1 6 -62 10 -162 9 l-162 -1 -53 -54 -54 -53 -105 0
-105 0 -1 -26 c0 -14 -1 -58 -1 -97 0 -40 -3 -73 -8 -73 -4 0 -27 21 -50 46
l-42 46 -106 -106 c-77 -77 -112 -106 -131 -107 -14 -1 -63 -1 -108 -1 l-83 0
-1 -46 c0 -26 -1 -74 -1 -106 l0 -59 -51 54 -52 54 -155 0 -155 0 -1 35 c-1
19 -2 43 -3 52 -1 15 -17 9 -99 -32 -55 -28 -106 -50 -114 -50 -8 0 -36 22
-61 49 l-46 49 -428 -1 -429 0 -54 -53 c-51 -50 -59 -54 -102 -54 l-48 0 -53
108 -53 107 -102 -1 c-96 0 -102 1 -103 20 0 12 -1 58 -1 104 0 45 -3 82 -6
82 -4 0 -28 -21 -54 -47 -36 -35 -50 -44 -60 -35 -7 6 -56 76 -108 156 -52 80
-97 145 -100 144 -3 -1 -53 -26 -111 -57z"/>
</g>
</svg>
